<svg width="25" height="25" viewBox="0 0 25 25" fill="none" xmlns="http://www.w3.org/2000/svg">
<path d="M23.3119 7.89627C23.3119 8.2683 23.1817 8.58452 22.9212 8.84494L12.8208 18.9454L10.9235 20.8427C10.6631 21.1031 10.3468 21.2333 9.97482 21.2333C9.60279 21.2333 9.28657 21.1031 9.02616 20.8427L7.12884 18.9454L2.07861 13.8952C1.8182 13.6347 1.68799 13.3185 1.68799 12.9465C1.68799 12.5745 1.8182 12.2583 2.07861 11.9978L3.97593 10.1005C4.23635 9.8401 4.55257 9.70989 4.9246 9.70989C5.29662 9.70989 5.61284 9.8401 5.87326 10.1005L9.97482 14.216L19.1266 5.05029C19.387 4.78988 19.7032 4.65967 20.0753 4.65967C20.4473 4.65967 20.7635 4.78988 21.0239 5.05029L22.9212 6.94761C23.1817 7.20803 23.3119 7.52425 23.3119 7.89627Z" fill="white"/>
</svg>
