<svg width="36" height="37" viewBox="0 0 36 37" fill="none" xmlns="http://www.w3.org/2000/svg">
<path d="M6.48844 29.9083C2.75353 25.5782 1.31895 20.6577 2.68233 15.085C3.60716 11.2994 5.71207 8.24495 8.89708 5.96167C15.2247 1.42221 23.923 2.02466 29.522 7.42035C32.657 10.4424 34.3271 14.1384 34.4597 18.5152C34.5922 22.892 33.0486 26.6069 30.1893 29.8925C30.3052 30.1018 30.4294 30.3021 30.5324 30.5122C31.1179 31.7051 31.7254 32.8881 32.2662 34.1006C32.4495 34.5125 32.5207 34.9982 32.5396 35.4561C32.5782 36.3974 31.9488 36.9479 31.03 36.7137C30.3217 36.5391 29.6432 36.2613 29.0168 35.8891C27.9011 35.2068 26.8513 34.4176 25.7742 33.6728L25.3834 33.404C23.1467 34.4146 20.8214 34.9734 18.3506 34.9809C15.8799 34.9884 13.5538 34.4312 11.2815 33.3844C11.0777 33.5298 10.8702 33.6856 10.652 33.8317C9.39016 34.6601 8.14495 35.5178 6.85201 36.295C6.41648 36.5571 5.86734 36.6858 5.35077 36.7468C4.66908 36.8297 4.22675 36.4185 4.12904 35.74C4.02906 35.0449 4.20478 34.3762 4.48503 33.7632C5.00084 32.6494 5.58861 31.5673 6.15138 30.4746C6.24076 30.2969 6.35361 30.1319 6.48844 29.9083ZM31.6829 19.0401C31.9715 11.9553 25.7038 5.63559 18.24 5.66572C11.5913 5.69509 4.92434 11.2226 4.93418 18.9716C4.94403 26.3056 10.9974 32.3301 18.4013 32.2699C26.3074 32.2059 31.9041 25.6038 31.6829 19.0401Z" fill="white"/>
<path d="M25.7622 2.71087C26.5272 1.89455 27.1332 1.00293 28.0678 0.477293C28.8677 0.0254561 29.7448 0.0887129 30.45 0.674595C31.9201 1.89606 33.354 3.1597 34.7673 4.45045C35.4846 5.10636 35.6217 6.31729 35.0665 7.11704C34.5113 7.91679 33.866 8.62316 33.2116 9.43421C31.2824 6.54772 28.9237 4.25239 25.7622 2.71087Z" fill="white"/>
<path d="M10.4644 2.73513C7.33313 4.22318 5.0025 6.53508 3.03545 9.4675C2.91653 9.28902 2.83247 9.1369 2.72416 9.00436C2.23031 8.40192 1.68571 7.83712 1.2411 7.20229C0.942616 6.77417 0.810435 6.25295 0.869074 5.73531C0.927713 5.21766 1.17319 4.73873 1.55997 4.38734C2.92335 3.14028 4.30744 1.91429 5.71223 0.709393C6.5454 -0.00526267 7.8588 0.0549815 8.65865 0.811055C9.22521 1.34648 9.75086 1.92408 10.2917 2.48436C10.3546 2.56417 10.4123 2.64793 10.4644 2.73513Z" fill="white"/>
<path d="M17.7474 17.3881C17.7474 17.227 17.7474 17.0651 17.7474 16.9039C17.7535 14.4941 17.7598 12.0843 17.7664 9.67452C17.7664 9.53671 17.7732 9.39815 17.7785 9.26034C17.7876 9.00731 17.7785 8.74148 18.0815 8.62927C18.395 8.51179 18.648 8.62927 18.8639 8.85519C18.898 8.89134 18.9283 8.9305 18.9798 8.993V17.4198C19.2744 17.7526 19.6524 17.7496 20.0137 17.7571C21.5914 17.7888 23.1691 17.8061 24.7469 17.8324C25.2513 17.8407 25.7565 17.846 26.2617 17.8776C26.9548 17.9205 27.3691 18.3588 27.3653 19.011C27.3653 19.6014 26.9321 20.0193 26.2526 20.0329C24.3591 20.0698 22.4655 20.0856 20.5719 20.112C20.0303 20.1195 19.5115 20.1609 19.0032 20.4275C18.2254 20.8319 17.3369 20.4907 16.8983 19.7181C16.5022 19.0185 16.709 18.148 17.3914 17.6442C17.4997 17.5643 17.6126 17.4853 17.7474 17.3881Z" fill="white"/>
</svg>
