<svg width="24" height="26" viewBox="0 0 24 26" fill="none" xmlns="http://www.w3.org/2000/svg">
<path d="M3.89114 20.7713C1.32351 17.863 0.337286 14.5583 1.27457 10.8155C1.91036 8.27292 3.35742 6.22148 5.54701 4.68795C9.89703 1.63911 15.8769 2.04373 19.726 5.66765C21.8812 7.69734 23.0294 10.1797 23.1205 13.1193C23.2116 16.0589 22.1504 18.5539 20.1847 20.7606C20.2644 20.9012 20.3498 21.0358 20.4206 21.1769C20.8231 21.978 21.2407 22.7726 21.6125 23.5869C21.7385 23.8636 21.7875 24.1898 21.8005 24.4973C21.827 25.1296 21.3943 25.4993 20.7627 25.342C20.2757 25.2248 19.8093 25.0381 19.3787 24.7882C18.6117 24.3299 17.89 23.7999 17.1495 23.2997L16.8808 23.1191C15.3431 23.7978 13.7446 24.1731 12.046 24.1782C10.3474 24.1833 8.74834 23.809 7.18621 23.1059C7.04613 23.2036 6.90346 23.3083 6.75349 23.4064C5.88599 23.9627 5.02994 24.5388 4.14109 25.0608C3.84168 25.2368 3.46416 25.3233 3.10903 25.3642C2.64039 25.4199 2.3363 25.1437 2.26913 24.688C2.2004 24.2212 2.3212 23.7721 2.51386 23.3603C2.86847 22.6123 3.27254 21.8855 3.65943 21.1516C3.72087 21.0322 3.79846 20.9215 3.89114 20.7713ZM21.2116 13.4718C21.41 8.71346 17.1011 4.46895 11.97 4.48918C7.39918 4.5089 2.81587 8.22133 2.82264 13.4258C2.82941 18.3516 6.99094 22.3978 12.0809 22.3574C17.5161 22.3144 21.3636 17.8802 21.2116 13.4718Z" fill="white"/>
<path d="M17.1412 2.50455C17.6671 1.95628 18.0837 1.35744 18.7262 1.0044C19.2761 0.700933 19.8791 0.743418 20.3639 1.13692C21.3746 1.95729 22.3603 2.80599 23.3319 3.6729C23.8251 4.11343 23.9193 4.92673 23.5376 5.46387C23.1559 6.00101 22.7123 6.47543 22.2624 7.02015C20.9361 5.0815 19.3146 3.53988 17.1412 2.50455Z" fill="white"/>
<path d="M6.62436 2.52075C4.47174 3.52017 2.86951 5.07292 1.51722 7.04242C1.43547 6.92255 1.37768 6.82039 1.30322 6.73137C0.963714 6.32675 0.589319 5.94741 0.283661 5.52104C0.0784657 5.2335 -0.0124047 4.88343 0.0279078 4.53576C0.0682202 4.1881 0.236977 3.86643 0.502879 3.63043C1.44016 2.79286 2.39168 1.96945 3.35742 1.1602C3.9302 0.680215 4.83313 0.720677 5.383 1.22848C5.77249 1.58809 6.13385 1.97602 6.50564 2.35232C6.5489 2.40593 6.58856 2.46218 6.62436 2.52075Z" fill="white"/>
<path d="M11.6316 12.3621C11.6316 12.2539 11.6316 12.1451 11.6316 12.0369C11.6357 10.4184 11.6401 8.79988 11.6446 7.18139C11.6446 7.08883 11.6492 6.99576 11.6529 6.90321C11.6591 6.73326 11.6529 6.55472 11.8612 6.47936C12.0768 6.40046 12.2507 6.47936 12.3991 6.6311C12.4225 6.65537 12.4433 6.68167 12.4787 6.72365V12.3833C12.6813 12.6069 12.9411 12.6049 13.1895 12.6099C14.2742 12.6312 15.3588 12.6428 16.4434 12.6605C16.7902 12.6661 17.1375 12.6696 17.4849 12.6909C17.9613 12.7197 18.2461 13.014 18.2435 13.4521C18.2435 13.8486 17.9457 14.1293 17.4786 14.1384C16.1768 14.1632 14.8751 14.1738 13.5733 14.1915C13.201 14.1966 12.8443 14.2244 12.4949 14.4034C11.9601 14.675 11.3493 14.4459 11.0478 13.927C10.7755 13.4571 10.9176 12.8724 11.3868 12.5341C11.4613 12.4804 11.5389 12.4273 11.6316 12.3621Z" fill="white"/>
</svg>
