<svg width="35" height="35" viewBox="0 0 35 35" fill="none" xmlns="http://www.w3.org/2000/svg">
<path d="M17.2262 34.7674C13.8078 34.7575 10.4693 33.7337 7.63299 31.8257C4.79672 29.9176 2.59023 27.211 1.29279 24.0484C-0.00465627 20.8859 -0.334741 17.4095 0.344309 14.0592C1.02336 10.709 2.68102 7.63553 5.1075 5.22776C7.53398 2.81999 10.6202 1.18618 13.9756 0.53309C17.331 -0.120003 20.8047 0.236994 23.9571 1.55889C27.1096 2.88078 29.799 5.10812 31.685 7.95908C33.5711 10.81 34.569 14.1564 34.5524 17.5748C34.5278 22.1501 32.6902 26.5291 29.4424 29.7518C26.1946 32.9746 21.8016 34.7782 17.2262 34.7674ZM12.1688 16.2561C12.5737 16.1589 12.9354 16.0401 13.3066 15.9861C14.8885 15.7688 15.4662 16.3519 15.1733 17.9162C15.0383 18.664 14.8169 19.4009 14.6415 20.1392C14.2609 21.7508 13.7723 23.3489 13.5401 24.982C13.3255 26.4964 14.215 27.5465 15.7145 27.9149C17.2586 28.2915 18.6677 27.8204 20.1038 27.3062C20.8677 27.0363 21.0648 26.5814 21.0769 25.9173C20.4412 25.997 19.8473 26.1306 19.2521 26.1333C18.2817 26.1333 17.8808 25.7216 17.9726 24.7458C18.0482 23.9481 18.2574 23.1599 18.4396 22.3757C18.8445 20.6535 19.3844 18.9542 19.6449 17.2117C19.9054 15.4692 18.8107 14.3112 17.0642 14.0858C15.7145 13.913 14.4998 14.3625 13.2594 14.7606C12.5008 14.9887 12.1418 15.4071 12.1688 16.2561ZM18.8283 11.802C20.2536 11.7926 21.444 10.6764 21.4494 9.34557C21.4494 7.98641 20.2347 6.84321 18.7878 6.85806C17.3409 6.8729 16.1599 8.00666 16.1802 9.38607C16.2004 10.7196 17.3989 11.8128 18.8283 11.802Z" fill="white"/>
</svg>
