<svg width="255" height="255" viewBox="0 0 255 255" fill="none" xmlns="http://www.w3.org/2000/svg">
<path d="M153 137.15C156.917 147.426 166.89 154.772 178.5 154.772C190.11 154.772 200.083 147.426 204 137.15C207.716 146.899 216.883 154.011 227.728 154.715V242.25C227.728 245.672 226.595 248.386 224.74 250.24C222.886 252.095 220.172 253.228 216.75 253.228H167.522V216.75C167.522 194.096 150.154 176.728 127.5 176.728C104.846 176.728 87.4776 194.096 87.4776 216.75V253.228H38.25C34.8278 253.228 32.1137 252.095 30.2596 250.24C28.4054 248.386 27.2724 245.672 27.2724 242.25V154.715C38.1172 154.011 47.2838 146.899 51 137.15C54.9171 147.426 64.8896 154.772 76.5 154.772C88.1104 154.772 98.0829 147.426 102 137.15C105.917 147.426 115.89 154.772 127.5 154.772C139.11 154.772 149.083 147.426 153 137.15ZM204 102H202.228C202.228 115.046 191.546 125.728 178.5 125.728C165.454 125.728 154.772 115.046 154.772 102H153H151.228C151.228 115.046 140.546 125.728 127.5 125.728C114.454 125.728 103.772 115.046 103.772 102H102H100.228C100.228 115.046 89.5461 125.728 76.5 125.728C63.4539 125.728 52.7724 115.046 52.7724 102H51H49.2276C49.2276 115.046 38.5461 125.728 25.5 125.728C12.4539 125.728 1.77244 115.046 1.77244 102V63.75C1.77244 60.3278 2.90544 57.6137 4.75956 55.7596C6.61367 53.9054 9.32778 52.7724 12.75 52.7724H242.25C245.672 52.7724 248.386 53.9054 250.24 55.7596C252.095 57.6137 253.228 60.3278 253.228 63.75V102C253.228 115.046 242.546 125.728 229.5 125.728C216.454 125.728 205.772 115.046 205.772 102H204ZM229.5 23.7276H29.325C23.8117 23.7276 18.3474 19.3079 18.3474 12.75C18.3474 9.32778 19.4804 6.61367 21.3346 4.75956C23.1887 2.90544 25.9028 1.77244 29.325 1.77244H229.5C232.922 1.77244 235.636 2.90544 237.49 4.75956C239.345 6.61367 240.478 9.32778 240.478 12.75C240.478 16.1722 239.345 18.8863 237.49 20.7404C235.636 22.5946 232.922 23.7276 229.5 23.7276Z" fill="black" fill-opacity="0.2"/>
<path d="M153 137.15C156.917 147.426 166.89 154.772 178.5 154.772C190.11 154.772 200.083 147.426 204 137.15C207.716 146.899 216.883 154.011 227.728 154.715V242.25C227.728 245.672 226.595 248.386 224.74 250.24C222.886 252.095 220.172 253.228 216.75 253.228H167.522V216.75C167.522 194.096 150.154 176.728 127.5 176.728C104.846 176.728 87.4776 194.096 87.4776 216.75V253.228H38.25C34.8278 253.228 32.1137 252.095 30.2596 250.24C28.4054 248.386 27.2724 245.672 27.2724 242.25V154.715C38.1172 154.011 47.2838 146.899 51 137.15C54.9171 147.426 64.8896 154.772 76.5 154.772C88.1104 154.772 98.0829 147.426 102 137.15C105.917 147.426 115.89 154.772 127.5 154.772C139.11 154.772 149.083 147.426 153 137.15ZM204 102H202.228C202.228 115.046 191.546 125.728 178.5 125.728C165.454 125.728 154.772 115.046 154.772 102H153H151.228C151.228 115.046 140.546 125.728 127.5 125.728C114.454 125.728 103.772 115.046 103.772 102H102H100.228C100.228 115.046 89.5461 125.728 76.5 125.728C63.4539 125.728 52.7724 115.046 52.7724 102H51H49.2276C49.2276 115.046 38.5461 125.728 25.5 125.728C12.4539 125.728 1.77244 115.046 1.77244 102V63.75C1.77244 60.3278 2.90544 57.6137 4.75956 55.7596C6.61367 53.9054 9.32778 52.7724 12.75 52.7724H242.25C245.672 52.7724 248.386 53.9054 250.24 55.7596C252.095 57.6137 253.228 60.3278 253.228 63.75V102C253.228 115.046 242.546 125.728 229.5 125.728C216.454 125.728 205.772 115.046 205.772 102H204ZM229.5 23.7276H29.325C23.8117 23.7276 18.3474 19.3079 18.3474 12.75C18.3474 9.32778 19.4804 6.61367 21.3346 4.75956C23.1887 2.90544 25.9028 1.77244 29.325 1.77244H229.5C232.922 1.77244 235.636 2.90544 237.49 4.75956C239.345 6.61367 240.478 9.32778 240.478 12.75C240.478 16.1722 239.345 18.8863 237.49 20.7404C235.636 22.5946 232.922 23.7276 229.5 23.7276Z" fill="url(#paint0_linear_12_180)"/>
<path d="M153 137.15C156.917 147.426 166.89 154.772 178.5 154.772C190.11 154.772 200.083 147.426 204 137.15C207.716 146.899 216.883 154.011 227.728 154.715V242.25C227.728 245.672 226.595 248.386 224.74 250.24C222.886 252.095 220.172 253.228 216.75 253.228H167.522V216.75C167.522 194.096 150.154 176.728 127.5 176.728C104.846 176.728 87.4776 194.096 87.4776 216.75V253.228H38.25C34.8278 253.228 32.1137 252.095 30.2596 250.24C28.4054 248.386 27.2724 245.672 27.2724 242.25V154.715C38.1172 154.011 47.2838 146.899 51 137.15C54.9171 147.426 64.8896 154.772 76.5 154.772C88.1104 154.772 98.0829 147.426 102 137.15C105.917 147.426 115.89 154.772 127.5 154.772C139.11 154.772 149.083 147.426 153 137.15ZM204 102H202.228C202.228 115.046 191.546 125.728 178.5 125.728C165.454 125.728 154.772 115.046 154.772 102H153H151.228C151.228 115.046 140.546 125.728 127.5 125.728C114.454 125.728 103.772 115.046 103.772 102H102H100.228C100.228 115.046 89.5461 125.728 76.5 125.728C63.4539 125.728 52.7724 115.046 52.7724 102H51H49.2276C49.2276 115.046 38.5461 125.728 25.5 125.728C12.4539 125.728 1.77244 115.046 1.77244 102V63.75C1.77244 60.3278 2.90544 57.6137 4.75956 55.7596C6.61367 53.9054 9.32778 52.7724 12.75 52.7724H242.25C245.672 52.7724 248.386 53.9054 250.24 55.7596C252.095 57.6137 253.228 60.3278 253.228 63.75V102C253.228 115.046 242.546 125.728 229.5 125.728C216.454 125.728 205.772 115.046 205.772 102H204ZM229.5 23.7276H29.325C23.8117 23.7276 18.3474 19.3079 18.3474 12.75C18.3474 9.32778 19.4804 6.61367 21.3346 4.75956C23.1887 2.90544 25.9028 1.77244 29.325 1.77244H229.5C232.922 1.77244 235.636 2.90544 237.49 4.75956C239.345 6.61367 240.478 9.32778 240.478 12.75C240.478 16.1722 239.345 18.8863 237.49 20.7404C235.636 22.5946 232.922 23.7276 229.5 23.7276Z" stroke="#FFDA00" stroke-width="3.54488"/>
<defs>
<linearGradient id="paint0_linear_12_180" x1="96.9775" y1="305.291" x2="281.43" y2="-209.968" gradientUnits="userSpaceOnUse">
<stop stop-color="#FFDA00"/>
<stop offset="1" stop-color="#FFDA00" stop-opacity="0"/>
</linearGradient>
</defs>
</svg>
