<svg width="51" height="47" viewBox="0 0 51 47" fill="none" xmlns="http://www.w3.org/2000/svg">
<path id="Vector" d="M50.8803 28.8396C50.8803 29.3304 50.688 29.801 50.3457 30.1481C50.0033 30.4951 49.5391 30.6901 49.055 30.6901H45.4043V34.3911C45.4043 34.8819 45.212 35.3526 44.8697 35.6996C44.5274 36.0467 44.0631 36.2416 43.579 36.2416C43.0949 36.2416 42.6306 36.0467 42.2883 35.6996C41.946 35.3526 41.7537 34.8819 41.7537 34.3911V30.6901H38.103C37.6189 30.6901 37.1547 30.4951 36.8123 30.1481C36.47 29.8011 36.2777 29.3304 36.2777 28.8396C36.2777 28.3488 36.47 27.8781 36.8123 27.5311C37.1547 27.184 37.6189 26.9891 38.103 26.9891H41.7537V23.288C41.7537 22.7972 41.946 22.3266 42.2883 21.9795C42.6306 21.6325 43.0949 21.4375 43.579 21.4375C44.0631 21.4375 44.5274 21.6325 44.8697 21.9795C45.212 22.3266 45.4043 22.7972 45.4043 23.288V26.9891H49.055C49.5391 26.9891 50.0033 27.184 50.3457 27.5311C50.688 27.8781 50.8803 28.3488 50.8803 28.8396ZM8.89792 9.40918H11.6359V12.185C11.6359 12.6757 11.8282 13.1464 12.1705 13.4935C12.5128 13.8405 12.9771 14.0355 13.4612 14.0355C13.9453 14.0355 14.4096 13.8405 14.7519 13.4935C15.0942 13.1464 15.2865 12.6757 15.2865 12.185V9.40918H18.0245C18.5086 9.40918 18.9729 9.21422 19.3152 8.86718C19.6575 8.52014 19.8498 8.04945 19.8498 7.55867C19.8498 7.06788 19.6575 6.5972 19.3152 6.25016C18.9729 5.90312 18.5086 5.70815 18.0245 5.70815H15.2865V2.93238C15.2865 2.4416 15.0942 1.97091 14.7519 1.62387C14.4096 1.27683 13.9453 1.08187 13.4612 1.08187C12.9771 1.08187 12.5128 1.27683 12.1705 1.62387C11.8282 1.97091 11.6359 2.4416 11.6359 2.93238V5.70815H8.89792C8.41382 5.70815 7.94954 5.90312 7.60723 6.25016C7.26491 6.5972 7.0726 7.06788 7.0726 7.55867C7.0726 8.04945 7.26491 8.52014 7.60723 8.86718C7.94954 9.21422 8.41382 9.40918 8.89792 9.40918ZM36.2777 38.0921H34.4524V36.2416C34.4524 35.7508 34.2601 35.2802 33.9178 34.9331C33.5755 34.5861 33.1112 34.3911 32.6271 34.3911C32.143 34.3911 31.6787 34.5861 31.3364 34.9331C30.9941 35.2802 30.8018 35.7508 30.8018 36.2416V38.0921H28.9764C28.4923 38.0921 28.0281 38.2871 27.6857 38.6341C27.3434 38.9812 27.1511 39.4519 27.1511 39.9427C27.1511 40.4334 27.3434 40.9041 27.6857 41.2512C28.0281 41.5982 28.4923 41.7932 28.9764 41.7932H30.8018V43.6437C30.8018 44.1345 30.9941 44.6052 31.3364 44.9522C31.6787 45.2992 32.143 45.4942 32.6271 45.4942C33.1112 45.4942 33.5755 45.2992 33.9178 44.9522C34.2601 44.6052 34.4524 44.1345 34.4524 43.6437V41.7932H36.2777C36.7618 41.7932 37.2261 41.5982 37.5684 41.2512C37.9107 40.9041 38.103 40.4334 38.103 39.9427C38.103 39.4519 37.9107 38.9812 37.5684 38.6341C37.2261 38.2871 36.7618 38.0921 36.2777 38.0921ZM35.7424 20.8963L11.4795 45.4942C10.7942 46.1871 9.8659 46.5762 8.89808 46.5762C7.93026 46.5763 7.00191 46.1872 6.31658 45.4944L1.59664 40.7091C1.25762 40.3654 0.988687 39.9574 0.805216 39.5084C0.621744 39.0593 0.527323 38.578 0.527344 38.092C0.527365 37.6059 0.621828 37.1247 0.805339 36.6756C0.98885 36.2266 1.25781 35.8186 1.59687 35.4749L35.5215 1.08187C36.2067 0.388948 37.135 -0.000200775 38.1029 -0.000244137C39.0707 -0.000287499 39.9991 0.388779 40.6844 1.08164L45.4043 5.86696C45.7434 6.21063 46.0123 6.61864 46.1958 7.06769C46.3792 7.51674 46.4736 7.99804 46.4736 8.48409C46.4736 8.97013 46.3791 9.45142 46.1956 9.90045C46.0121 10.3495 45.7431 10.7575 45.4041 11.1011L35.7439 20.8947L35.7432 20.8955L35.7424 20.8963ZM29.7326 12.185L34.4524 16.9699L42.8228 8.48392L42.823 8.48369L42.8246 8.482L38.103 3.69884L29.7326 12.185Z" fill="white"/>
</svg>
