<svg width="32" height="30" viewBox="0 0 32 30" fill="none" xmlns="http://www.w3.org/2000/svg">
<path id="Vector" d="M30.9987 11.3083C30.86 10.8728 30.5932 10.4891 30.2331 10.2075C29.8731 9.92582 29.4365 9.75923 28.9803 9.72944L20.731 9.15214L17.6709 1.4465C17.5053 1.0205 17.2149 0.654456 16.8377 0.396341C16.4605 0.138226 16.0141 7.78667e-05 15.5571 0H15.5549C15.0985 0.000813964 14.6531 0.139314 14.2767 0.39739C13.9003 0.655467 13.6106 1.02111 13.4454 1.4465L10.3397 9.19662L2.13596 9.72944C1.6798 9.75923 1.24322 9.92582 0.883169 10.2075C0.523118 10.4891 0.256319 10.8728 0.117582 11.3083C-0.0287767 11.7501 -0.0387332 12.2257 0.0890091 12.6731C0.216751 13.1206 0.476273 13.5193 0.833779 13.8172L7.145 19.1518L5.26769 26.5362C5.1383 27.0336 5.16209 27.5585 5.33596 28.0422C5.50983 28.5258 5.82568 28.9457 6.24215 29.2469C6.64425 29.5394 7.12509 29.7042 7.62211 29.7197C8.11912 29.7351 8.60929 29.6007 9.02881 29.3337L15.5397 25.2091C15.5484 25.2026 15.5571 25.1982 15.5766 25.2091L22.5823 29.6473C22.9626 29.8903 23.4075 30.0129 23.8586 29.9989C24.3097 29.985 24.7461 29.8352 25.1107 29.5692C25.4881 29.2964 25.7743 28.916 25.9319 28.4779C26.0895 28.0397 26.1112 27.5642 25.994 27.1135L23.9995 19.0465L30.2825 13.8172C30.64 13.5193 30.8995 13.1206 31.0273 12.6731C31.155 12.2257 31.1451 11.7501 30.9987 11.3083Z" fill="white"/>
</svg>
