<svg width="22" height="30" viewBox="0 0 22 30" fill="none" xmlns="http://www.w3.org/2000/svg">
<path id="Vector" d="M21.9736 13.7712C21.936 13.6112 21.8595 13.4628 21.751 13.3394C21.6424 13.2159 21.5051 13.1211 21.3511 13.0634L14.1473 10.362L15.9806 1.19585C16.0233 0.982499 15.9952 0.76106 15.9006 0.565116C15.806 0.369172 15.6501 0.209415 15.4566 0.110077C15.263 0.0107385 15.0423 -0.0227613 14.828 0.0146587C14.6137 0.0520786 14.4174 0.158377 14.2689 0.31743L0.268949 15.3174C0.15677 15.4376 0.0759555 15.5836 0.0336592 15.7425C-0.00863707 15.9013 -0.0111098 16.0682 0.02646 16.2282C0.0640298 16.3883 0.140483 16.5366 0.249051 16.6601C0.357619 16.7835 0.494953 16.8783 0.648893 16.9361L7.85268 19.6375L6.01943 28.8036C5.97675 29.0169 6.00481 29.2384 6.09937 29.4344C6.19394 29.6303 6.34983 29.7901 6.54341 29.8894C6.73699 29.9888 6.95769 30.0223 7.17203 29.9848C7.38637 29.9474 7.58265 29.8411 7.7311 29.682L21.7311 14.682C21.8432 14.5618 21.9241 14.4158 21.9664 14.257C22.0087 14.0981 22.0111 13.9313 21.9736 13.7712Z" fill="white"/>
</svg>
