<svg width="20" height="20" viewBox="0 0 20 20" fill="none" xmlns="http://www.w3.org/2000/svg">
<path d="M16.0982 11.2493H12.869C12.4411 11.2493 12.0306 11.4188 11.7273 11.7207C11.424 12.0226 11.2527 12.4323 11.2507 12.8602V16.0894C11.2507 16.5186 11.4212 16.9302 11.7247 17.2337C12.0282 17.5372 12.4398 17.7077 12.869 17.7077H16.0982C16.5259 17.7055 16.9354 17.534 17.2371 17.2307C17.5388 16.9275 17.7082 16.5171 17.7082 16.0894V12.8602C17.7082 12.4332 17.5385 12.0237 17.2366 11.7217C16.9347 11.4198 16.5252 11.2502 16.0982 11.2502M7.13067 11.2493H3.9015C3.47366 11.2518 3.06417 11.4234 2.7625 11.7268C2.46083 12.0302 2.2915 12.4407 2.2915 12.8685V16.0977C2.2915 16.5247 2.46113 16.9342 2.76306 17.2361C3.065 17.5381 3.47451 17.7077 3.9015 17.7077H7.13067C7.55844 17.7077 7.96881 17.5383 8.27207 17.2366C8.57533 16.9349 8.7468 16.5254 8.749 16.0977V12.8685C8.749 12.4393 8.5785 12.0277 8.27501 11.7242C7.97151 11.4207 7.55988 11.2502 7.13067 11.2502M7.13067 2.29102H3.9015C3.69008 2.29102 3.48072 2.33266 3.28538 2.41357C3.09005 2.49448 2.91256 2.61307 2.76306 2.76257C2.61356 2.91208 2.49497 3.08956 2.41406 3.2849C2.33315 3.48023 2.2915 3.68959 2.2915 3.90102V7.13018C2.2915 7.55795 2.46086 7.96832 2.76255 8.27158C3.06425 8.57484 3.47374 8.74631 3.9015 8.74852H7.13067C7.55988 8.74852 7.97151 8.57801 8.27501 8.27452C8.5785 7.97102 8.749 7.55939 8.749 7.13018V3.90102C8.7468 3.47325 8.57533 3.06376 8.27207 2.76206C7.96881 2.46037 7.55844 2.29101 7.13067 2.29102ZM16.0982 2.29102H12.869C12.4412 2.29101 12.0309 2.46037 11.7276 2.76206C11.4243 3.06376 11.2529 3.47325 11.2507 3.90102V7.13018C11.2509 7.55932 11.4215 7.97082 11.7249 8.27427C12.0284 8.57772 12.4399 8.74829 12.869 8.74852H16.0982C16.5259 8.74631 16.9354 8.57484 17.2371 8.27158C17.5388 7.96832 17.7082 7.55795 17.7082 7.13018V3.90102C17.7082 3.47402 17.5385 3.06451 17.2366 2.76257C16.9347 2.46064 16.5252 2.29102 16.0982 2.29102Z" stroke="white" stroke-width="1.8" stroke-linecap="round" stroke-linejoin="round"/>
</svg>
