<svg width="27" height="21" viewBox="0 0 27 21" fill="none" xmlns="http://www.w3.org/2000/svg">
<path d="M22.6534 1.68825C20.8951 0.903073 19.041 0.349363 17.1383 0.0411768C16.8768 0.508353 16.6415 0.989478 16.4333 1.48236C14.4074 1.17771 12.3469 1.17771 10.321 1.48236C10.1041 0.975891 9.86045 0.481088 9.59119 0C7.68257 0.32037 5.82521 0.890844 4.06774 1.69648C0.963032 6.11022 -0.438257 11.4861 0.120052 16.8413C2.16364 18.3486 4.45273 19.4963 6.88752 20.2343C7.43231 19.4936 7.91759 18.7116 8.33888 17.8954C7.54535 17.6002 6.77942 17.2365 6.04988 16.8084C6.24063 16.6684 6.43138 16.5284 6.60554 16.3801C8.7199 17.3786 11.0317 17.8967 13.373 17.8967C15.7143 17.8967 18.0261 17.3786 20.1405 16.3801L20.7044 16.8166C19.9741 17.2431 19.2083 17.6068 18.4154 17.9037C18.8451 18.7215 19.3445 19.5012 19.9083 20.2343C22.3437 19.498 24.6331 18.3502 26.6757 16.8413C27.2167 11.4741 25.7884 6.09332 22.6534 1.68825V1.68825ZM8.92772 13.7942C8.25363 13.7518 7.62367 13.4468 7.17483 12.9456C6.72599 12.4444 6.49458 11.7875 6.5309 11.1177C6.51071 10.7856 6.55675 10.4528 6.66638 10.1383C6.776 9.82388 6.94705 9.53403 7.16972 9.28537C7.39239 9.03671 7.66231 8.83415 7.96398 8.6893C8.26566 8.54444 8.59316 8.46015 8.92772 8.44124C9.26336 8.45802 9.5923 8.54083 9.89545 8.68486C10.1986 8.82889 10.4699 9.03128 10.6937 9.28028C10.9174 9.52927 11.0891 9.81992 11.1989 10.1353C11.3086 10.4508 11.3541 10.7847 11.3328 11.1177C11.3691 11.7888 11.1365 12.4469 10.6859 12.9483C10.2353 13.4498 9.60328 13.7539 8.92772 13.7942V13.7942ZM17.81 13.7942C17.1359 13.7518 16.506 13.4468 16.0571 12.9456C15.6083 12.4444 15.3769 11.7875 15.4132 11.1177C15.393 10.7856 15.4391 10.4528 15.5487 10.1383C15.6583 9.82388 15.8294 9.53403 16.052 9.28537C16.2747 9.03671 16.5446 8.83415 16.8463 8.6893C17.148 8.54444 17.4755 8.46015 17.81 8.44124C18.1457 8.45802 18.4746 8.54083 18.7778 8.68486C19.0809 8.82889 19.3522 9.03128 19.576 9.28028C19.7997 9.52927 19.9714 9.81992 20.0812 10.1353C20.1909 10.4508 20.2364 10.7847 20.2151 11.1177C20.2514 11.7888 20.0188 12.4469 19.5682 12.9483C19.1177 13.4498 18.4856 13.7539 17.81 13.7942V13.7942Z" fill="white"/>
</svg>
