<svg width="24" height="24" viewBox="0 0 24 24" fill="none" xmlns="http://www.w3.org/2000/svg">
<path d="M21.0001 14.5C20.0241 14.5 18.0001 15.044 16.9741 15.338C16.8381 13.904 15.0001 13.396 13.1001 13.01C12.2321 12.834 11.5871 12.523 10.9631 12.222C10.1931 11.851 9.46711 11.5 8.50011 11.5C7.18311 11.5 6.00311 11.82 5.54411 11.96C5.58211 12.136 5.59611 12.32 5.57011 12.507L4.86411 17.712C4.85211 17.799 4.81211 17.872 4.78711 17.952C5.08011 18.096 11.0881 21 13.5001 21C15.4401 21 19.4331 19.037 22.0741 17.738C22.7631 17.4 23.3321 17.12 23.7011 16.958C23.79 16.919 23.8657 16.8548 23.9188 16.7735C23.9719 16.6922 24.0001 16.5971 24.0001 16.5C24.0001 15.322 22.7671 14.5 21.0001 14.5Z" fill="#FFB999"/>
<path opacity="0.1" d="M23.9679 16.327C23.9575 16.4086 23.9268 16.4862 23.8786 16.5528C23.8304 16.6194 23.7662 16.6727 23.6919 16.708C23.3219 16.87 22.7529 17.15 22.0649 17.488C19.4229 18.788 15.4299 20.75 13.4909 20.75C11.1809 20.75 5.58689 18.092 4.85489 17.74C4.84289 17.817 4.80889 17.884 4.78589 17.956C5.12789 18.123 11.0889 21 13.4909 21C15.4309 21 19.4229 19.037 22.0649 17.738C22.7529 17.4 23.3229 17.12 23.6919 16.958C23.7808 16.9189 23.8565 16.8548 23.9096 16.7735C23.9627 16.6922 23.9909 16.5971 23.9909 16.5C23.9909 16.44 23.9739 16.385 23.9679 16.327Z" fill="black"/>
<path d="M4.67 10.824L0 10V19H3.633C4.375 19 5.013 18.446 5.118 17.712L5.861 12.507C5.91522 12.1274 5.822 11.7414 5.60049 11.4284C5.37899 11.1154 5.04602 10.8991 4.67 10.824Z" fill="#039BE5"/>
<path opacity="0.1" d="M18.4999 11.75C17.799 11.7486 17.1136 11.5441 16.5265 11.1613C15.9394 10.7785 15.4758 10.2338 15.1919 9.59299C15.6539 10.986 16.9539 12 18.4999 12C20.0459 12 21.3459 10.986 21.8079 9.59299C21.524 10.2338 21.0604 10.7785 20.4733 11.1613C19.8862 11.5441 19.2008 11.7486 18.4999 11.75Z" fill="black"/>
<path fill-rule="evenodd" clip-rule="evenodd" d="M21 14.5C20.024 14.5 18 15.044 16.974 15.338C16.838 13.904 15 13.396 13.1 13.01C12.232 12.834 11.587 12.523 10.963 12.222L10.9571 12.2192C10.1893 11.8492 9.46452 11.5 8.5 11.5C7.389 11.5 6.38 11.727 5.815 11.883C5.7399 11.6183 5.5933 11.3794 5.39131 11.1926C5.18931 11.0058 4.93974 10.8782 4.67 10.824L0 10V19H3.633C4.25 19 4.776 18.607 5.003 18.056C6.117 18.587 11.299 21 13.5 21C15.44 21 19.433 19.037 22.074 17.738L22.1604 17.6956C22.8106 17.3766 23.3475 17.1132 23.701 16.958C23.7899 16.919 23.8656 16.8548 23.9187 16.7735C23.9718 16.6922 24 16.5971 24 16.5C24 15.322 22.767 14.5 21 14.5ZM15.335 9.99618C13.5003 9.91104 12.0347 8.41337 12.0006 6.56581C12.0002 6.54392 12 6.52198 12 6.5C12 4.567 13.567 3 15.5 3C16.8977 3 18.104 3.81929 18.665 5.00382C20.4852 5.0883 21.9423 6.5632 21.9983 8.39074C21.9994 8.42702 22 8.46345 22 8.5C22 10.433 20.433 12 18.5 12C17.1023 12 15.896 11.1807 15.335 9.99618ZM16 6.05051V4.5H15V8.5H16V6.05051ZM18 8.94949V6.5H19V10.5H18V8.94949Z" fill="white"/>
</svg>
