<svg width="20" height="20" viewBox="0 0 20 20" fill="none" xmlns="http://www.w3.org/2000/svg">
<path d="M15.2118 3.54823C15.0508 3.53555 14.889 3.55632 14.7364 3.60922C14.5838 3.66212 14.4439 3.74601 14.3253 3.85563C14.2067 3.96524 14.1121 4.0982 14.0473 4.24615C13.9826 4.39409 13.9492 4.55383 13.9492 4.71531C13.9492 4.8768 13.9826 5.03653 14.0473 5.18448C14.1121 5.33243 14.2067 5.46539 14.3253 5.575C14.4439 5.68461 14.5838 5.76851 14.7364 5.82141C14.889 5.87431 15.0508 5.89508 15.2118 5.8824C15.5055 5.85927 15.7796 5.72628 15.9796 5.50996C16.1796 5.29364 16.2906 5.00989 16.2906 4.71531C16.2906 4.42074 16.1796 4.13698 15.9796 3.92066C15.7796 3.70434 15.5055 3.57136 15.2118 3.54823V3.54823Z" fill="white"/>
<path d="M10.0231 5.05859C9.05408 5.05859 8.10679 5.34595 7.30106 5.88432C6.49533 6.4227 5.86733 7.18791 5.4965 8.08319C5.12566 8.97847 5.02863 9.96361 5.21768 10.914C5.40673 11.8645 5.87337 12.7375 6.55859 13.4227C7.24381 14.1079 8.11683 14.5746 9.06726 14.7636C10.0177 14.9527 11.0028 14.8556 11.8981 14.4848C12.7934 14.114 13.5586 13.486 14.097 12.6802C14.6354 11.8745 14.9227 10.9272 14.9227 9.95818C14.9227 8.65873 14.4065 7.4125 13.4877 6.49365C12.5688 5.5748 11.3226 5.05859 10.0231 5.05859V5.05859ZM10.0231 13.0945C9.40282 13.0945 8.79644 12.9105 8.28068 12.5659C7.76492 12.2213 7.36293 11.7315 7.12555 11.1584C6.88817 10.5853 6.82606 9.9547 6.94707 9.34631C7.06809 8.73793 7.36679 8.17909 7.80541 7.74047C8.24404 7.30185 8.80287 7.00314 9.41126 6.88213C10.0196 6.76111 10.6502 6.82322 11.2233 7.0606C11.7964 7.29798 12.2862 7.69997 12.6309 8.21574C12.9755 8.7315 13.1594 9.33787 13.1594 9.95818C13.1537 10.7869 12.821 11.5798 12.2336 12.1645C11.6463 12.7491 10.8518 13.0782 10.0231 13.08V13.0945Z" fill="white"/>
<path d="M13.9111 19.8874H5.96188C4.37995 19.8817 2.86467 19.2497 1.74742 18.1298C0.630177 17.0098 0.00190018 15.493 0 13.9111L0 5.96188C0.00573052 4.37995 0.637678 2.86467 1.75763 1.74742C2.87758 0.630177 4.3944 0.00190018 5.97634 0L13.9255 0C15.51 0.00191242 17.0289 0.632175 18.1493 1.75254C19.2697 2.87291 19.8999 4.3919 19.9019 5.97634V13.9255C19.8961 15.5099 19.2622 17.0274 18.1391 18.1451C17.016 19.2627 15.4955 19.8893 13.9111 19.8874V19.8874ZM5.97634 1.87167C4.8883 1.87358 3.84537 2.30665 3.07601 3.07601C2.30665 3.84537 1.87358 4.8883 1.87167 5.97634V13.9255C1.87358 15.0136 2.30665 16.0565 3.07601 16.8258C3.84537 17.5952 4.8883 18.0283 5.97634 18.0302H13.9255C15.0136 18.0283 16.0565 17.5952 16.8258 16.8258C17.5952 16.0565 18.0283 15.0136 18.0302 13.9255V5.97634C18.0283 4.8883 17.5952 3.84537 16.8258 3.07601C16.0565 2.30665 15.0136 1.87358 13.9255 1.87167H5.97634Z" fill="white"/>
</svg>
