<svg width="24" height="18" viewBox="0 0 24 18" fill="none" xmlns="http://www.w3.org/2000/svg">
<path d="M21.0001 11.5C20.0241 11.5 18.0001 12.044 16.9741 12.338C16.8381 10.904 15.0001 10.396 13.1001 10.01C12.2321 9.834 11.5871 9.523 10.9631 9.222C10.1931 8.851 9.46711 8.5 8.50011 8.5C7.18311 8.5 6.00311 8.82 5.54411 8.96C5.58211 9.136 5.59611 9.32 5.57011 9.507L4.86411 14.712C4.85211 14.799 4.81211 14.872 4.78711 14.952C5.08011 15.096 11.0881 18 13.5001 18C15.4401 18 19.4331 16.037 22.0741 14.738C22.7631 14.4 23.3321 14.12 23.7011 13.958C23.79 13.919 23.8657 13.8548 23.9188 13.7735C23.9719 13.6922 24.0001 13.5971 24.0001 13.5C24.0001 12.322 22.7671 11.5 21.0001 11.5Z" fill="#FFB999"/>
<path opacity="0.1" d="M23.9679 13.327C23.9575 13.4086 23.9268 13.4862 23.8786 13.5528C23.8304 13.6194 23.7662 13.6728 23.6919 13.708C23.3219 13.87 22.7529 14.15 22.0649 14.488C19.4229 15.788 15.4299 17.75 13.4909 17.75C11.1809 17.75 5.58689 15.092 4.85489 14.74C4.84289 14.817 4.80889 14.884 4.78589 14.956C5.12789 15.123 11.0889 18 13.4909 18C15.4309 18 19.4229 16.037 22.0649 14.738C22.7529 14.4 23.3229 14.12 23.6919 13.958C23.7808 13.919 23.8565 13.8549 23.9096 13.7735C23.9627 13.6922 23.9909 13.5972 23.9909 13.5C23.9909 13.44 23.9739 13.385 23.9679 13.327Z" fill="black"/>
<path d="M4.67 7.824L0 7V16H3.633C4.375 16 5.013 15.446 5.118 14.712L5.861 9.507C5.91522 9.1274 5.822 8.74145 5.60049 8.42844C5.37899 8.11543 5.04602 7.89914 4.67 7.824Z" fill="#039BE5"/>
<path opacity="0.1" d="M18.4999 8.75002C17.799 8.74864 17.1136 8.54418 16.5265 8.16136C15.9394 7.77855 15.4758 7.2338 15.1919 6.59302C15.6539 7.98602 16.9539 9.00002 18.4999 9.00002C20.0459 9.00002 21.3459 7.98602 21.8079 6.59302C21.524 7.2338 21.0604 7.77855 20.4733 8.16136C19.8862 8.54418 19.2008 8.74864 18.4999 8.75002Z" fill="black"/>
<path fill-rule="evenodd" clip-rule="evenodd" d="M21 11.5C20.024 11.5 18 12.044 16.974 12.338C16.838 10.904 15 10.396 13.1 10.01C12.232 9.834 11.587 9.523 10.963 9.222L10.9571 9.21915C10.1893 8.84921 9.46452 8.5 8.5 8.5C7.389 8.5 6.38 8.727 5.815 8.883C5.7399 8.61831 5.5933 8.37943 5.39131 8.19261C5.18931 8.00579 4.93974 7.87825 4.67 7.824L0 7V16H3.633C4.25 16 4.776 15.607 5.003 15.056C6.117 15.587 11.299 18 13.5 18C15.44 18 19.433 16.037 22.074 14.738L22.1604 14.6956C22.8106 14.3766 23.3475 14.1132 23.701 13.958C23.7899 13.919 23.8656 13.8548 23.9187 13.7735C23.9718 13.6922 24 13.5971 24 13.5C24 12.322 22.767 11.5 21 11.5ZM15.335 6.99618C13.5003 6.91104 12.0347 5.41337 12.0006 3.56581C12.0002 3.54392 12 3.52198 12 3.5C12 1.567 13.567 0 15.5 0C16.8977 0 18.104 0.819288 18.665 2.00382C20.4852 2.0883 21.9423 3.5632 21.9983 5.39074C21.9994 5.42702 22 5.46345 22 5.5C22 7.433 20.433 9 18.5 9C17.1023 9 15.896 8.18071 15.335 6.99618ZM16 3.05051V1.5H15V5.5H16V3.05051ZM18 5.94949V3.5H19V7.5H18V5.94949Z" fill="white"/>
</svg>
