<svg width="18" height="21" viewBox="0 0 18 21" fill="none" xmlns="http://www.w3.org/2000/svg">
<path d="M17.3501 8.18683C17.1882 8.18683 17.0198 8.18683 16.8515 8.18683C15.9519 8.1875 15.0664 7.96436 14.2749 7.53758C13.4834 7.1108 12.8108 6.49383 12.318 5.74242V14.0845C12.3193 15.3013 11.959 16.4912 11.2827 17.5035C10.6065 18.5159 9.64463 19.3051 8.51895 19.7714C7.39327 20.2376 6.15437 20.36 4.95903 20.1229C3.7637 19.8858 2.66568 19.3 1.80393 18.4395C0.942192 17.579 0.355471 16.4827 0.118031 15.2891C-0.119409 14.0955 0.00310538 12.8585 0.470069 11.7345C0.937032 10.6105 1.72745 9.65009 2.74129 8.97483C3.75512 8.29957 4.9468 7.93982 6.16548 7.94109V7.94109C6.29061 7.93465 6.41599 7.93465 6.54111 7.94109V10.9934C6.41669 10.9737 6.2913 10.9608 6.16548 10.9546C5.74057 10.9353 5.31615 11.0022 4.91786 11.1513C4.51958 11.3004 4.15569 11.5286 3.84817 11.822C3.54066 12.1154 3.2959 12.4681 3.12868 12.8586C2.96146 13.2491 2.87524 13.6694 2.87524 14.0942C2.87524 14.5189 2.96146 14.9392 3.12868 15.3297C3.2959 15.7202 3.54066 16.0729 3.84817 16.3663C4.15569 16.6597 4.51958 16.8879 4.91786 17.037C5.31615 17.1861 5.74057 17.253 6.16548 17.2337C7.00232 17.2344 7.80693 16.9116 8.41061 16.3329C9.0143 15.7542 9.37018 14.9646 9.40366 14.1297L9.46842 0H12.3698C12.502 1.25997 13.0741 2.43327 13.986 3.31417C14.8978 4.19508 16.0911 4.72736 17.3566 4.81768V8.18683" fill="white"/>
</svg>
