<svg width="29" height="21" viewBox="0 0 29 21" fill="none" xmlns="http://www.w3.org/2000/svg">
<path d="M28.9061 6.34577C28.9061 4.66441 28.2387 3.05178 27.0503 1.86199C25.862 0.672198 24.2499 0.002517 22.568 0L6.34756 0C4.66408 0 3.04956 0.668571 1.85916 1.85863C0.668759 3.0487 0 4.66277 0 6.34577L0 13.8885C0 15.5715 0.668759 17.1856 1.85916 18.3756C3.04956 19.5657 4.66408 20.2343 6.34756 20.2343H22.568C24.2499 20.2318 25.862 19.5621 27.0503 18.3723C28.2387 17.1825 28.9061 15.5699 28.9061 13.8885V6.34577ZM19.4038 10.6776L12.0965 14.2495C11.8114 14.4015 10.8422 14.2495 10.8422 13.8695V6.51677C10.8422 6.18428 11.7924 5.98478 12.106 6.14628L19.0617 9.94614C19.3563 10.0981 19.6603 10.5161 19.3658 10.6776H19.4038Z" fill="white"/>
</svg>
