<svg width="303" height="7" viewBox="0 0 303 7" fill="none" xmlns="http://www.w3.org/2000/svg">
<path d="M48 1.5C48 0.671573 48.6716 0 49.5 0C50.3284 0 51 0.671573 51 1.5V5.5C51 6.32843 50.3284 7 49.5 7C48.6716 7 48 6.32843 48 5.5V1.5Z" fill="white" fill-opacity="0.25"/>
<path d="M54 1.5C54 0.671573 54.6716 0 55.5 0C56.3284 0 57 0.671573 57 1.5V5.5C57 6.32843 56.3284 7 55.5 7C54.6716 7 54 6.32843 54 5.5V1.5Z" fill="white" fill-opacity="0.25"/>
<path d="M60 1.5C60 0.671573 60.6716 0 61.5 0C62.3284 0 63 0.671573 63 1.5V5.5C63 6.32843 62.3284 7 61.5 7C60.6716 7 60 6.32843 60 5.5V1.5Z" fill="white" fill-opacity="0.25"/>
<path d="M66 1.5C66 0.671573 66.6716 0 67.5 0C68.3284 0 69 0.671573 69 1.5V5.5C69 6.32843 68.3284 7 67.5 7C66.6716 7 66 6.32843 66 5.5V1.5Z" fill="white" fill-opacity="0.25"/>
<path d="M72 1.5C72 0.671573 72.6716 0 73.5 0C74.3284 0 75 0.671573 75 1.5V5.5C75 6.32843 74.3284 7 73.5 7C72.6716 7 72 6.32843 72 5.5V1.5Z" fill="white" fill-opacity="0.25"/>
<path d="M78 1.5C78 0.671573 78.6716 0 79.5 0C80.3284 0 81 0.671573 81 1.5V5.5C81 6.32843 80.3284 7 79.5 7C78.6716 7 78 6.32843 78 5.5V1.5Z" fill="white" fill-opacity="0.25"/>
<path d="M84 1.5C84 0.671573 84.6716 0 85.5 0C86.3284 0 87 0.671573 87 1.5V5.5C87 6.32843 86.3284 7 85.5 7C84.6716 7 84 6.32843 84 5.5V1.5Z" fill="white" fill-opacity="0.25"/>
<path d="M90 1.5C90 0.671573 90.6716 0 91.5 0C92.3284 0 93 0.671573 93 1.5V5.5C93 6.32843 92.3284 7 91.5 7C90.6716 7 90 6.32843 90 5.5V1.5Z" fill="white" fill-opacity="0.25"/>
<path d="M96 1.5C96 0.671573 96.6716 0 97.5 0C98.3284 0 99 0.671573 99 1.5V5.5C99 6.32843 98.3284 7 97.5 7C96.6716 7 96 6.32843 96 5.5V1.5Z" fill="white" fill-opacity="0.25"/>
<path d="M102 1.5C102 0.671573 102.672 0 103.5 0C104.328 0 105 0.671573 105 1.5V5.5C105 6.32843 104.328 7 103.5 7C102.672 7 102 6.32843 102 5.5V1.5Z" fill="white" fill-opacity="0.25"/>
<path d="M108 1.5C108 0.671573 108.672 0 109.5 0C110.328 0 111 0.671573 111 1.5V5.5C111 6.32843 110.328 7 109.5 7C108.672 7 108 6.32843 108 5.5V1.5Z" fill="white" fill-opacity="0.25"/>
<path d="M114 1.5C114 0.671573 114.672 0 115.5 0C116.328 0 117 0.671573 117 1.5V5.5C117 6.32843 116.328 7 115.5 7C114.672 7 114 6.32843 114 5.5V1.5Z" fill="white" fill-opacity="0.25"/>
<path d="M120 1.5C120 0.671573 120.672 0 121.5 0C122.328 0 123 0.671573 123 1.5V5.5C123 6.32843 122.328 7 121.5 7C120.672 7 120 6.32843 120 5.5V1.5Z" fill="white" fill-opacity="0.25"/>
<path d="M126 1.5C126 0.671573 126.672 0 127.5 0C128.328 0 129 0.671573 129 1.5V5.5C129 6.32843 128.328 7 127.5 7C126.672 7 126 6.32843 126 5.5V1.5Z" fill="white" fill-opacity="0.25"/>
<path d="M132 1.5C132 0.671573 132.672 0 133.5 0C134.328 0 135 0.671573 135 1.5V5.5C135 6.32843 134.328 7 133.5 7C132.672 7 132 6.32843 132 5.5V1.5Z" fill="white" fill-opacity="0.25"/>
<path d="M138 1.5C138 0.671573 138.672 0 139.5 0C140.328 0 141 0.671573 141 1.5V5.5C141 6.32843 140.328 7 139.5 7C138.672 7 138 6.32843 138 5.5V1.5Z" fill="white" fill-opacity="0.25"/>
<path d="M144 1.5C144 0.671573 144.672 0 145.5 0C146.328 0 147 0.671573 147 1.5V5.5C147 6.32843 146.328 7 145.5 7C144.672 7 144 6.32843 144 5.5V1.5Z" fill="white" fill-opacity="0.25"/>
<path d="M150 1.5C150 0.671573 150.672 0 151.5 0C152.328 0 153 0.671573 153 1.5V5.5C153 6.32843 152.328 7 151.5 7C150.672 7 150 6.32843 150 5.5V1.5Z" fill="white" fill-opacity="0.25"/>
<path d="M156 1.5C156 0.671573 156.672 0 157.5 0C158.328 0 159 0.671573 159 1.5V5.5C159 6.32843 158.328 7 157.5 7C156.672 7 156 6.32843 156 5.5V1.5Z" fill="white" fill-opacity="0.25"/>
<path d="M162 1.5C162 0.671573 162.672 0 163.5 0C164.328 0 165 0.671573 165 1.5V5.5C165 6.32843 164.328 7 163.5 7C162.672 7 162 6.32843 162 5.5V1.5Z" fill="white" fill-opacity="0.25"/>
<path d="M168 1.5C168 0.671573 168.672 0 169.5 0C170.328 0 171 0.671573 171 1.5V5.5C171 6.32843 170.328 7 169.5 7C168.672 7 168 6.32843 168 5.5V1.5Z" fill="white" fill-opacity="0.25"/>
<path d="M174 1.5C174 0.671573 174.672 0 175.5 0C176.328 0 177 0.671573 177 1.5V5.5C177 6.32843 176.328 7 175.5 7C174.672 7 174 6.32843 174 5.5V1.5Z" fill="white" fill-opacity="0.25"/>
<path d="M180 1.5C180 0.671573 180.672 0 181.5 0C182.328 0 183 0.671573 183 1.5V5.5C183 6.32843 182.328 7 181.5 7C180.672 7 180 6.32843 180 5.5V1.5Z" fill="white" fill-opacity="0.25"/>
<path d="M186 1.5C186 0.671573 186.672 0 187.5 0C188.328 0 189 0.671573 189 1.5V5.5C189 6.32843 188.328 7 187.5 7C186.672 7 186 6.32843 186 5.5V1.5Z" fill="white" fill-opacity="0.25"/>
<path d="M192 1.5C192 0.671573 192.672 0 193.5 0C194.328 0 195 0.671573 195 1.5V5.5C195 6.32843 194.328 7 193.5 7C192.672 7 192 6.32843 192 5.5V1.5Z" fill="white" fill-opacity="0.25"/>
<path d="M198 1.5C198 0.671573 198.672 0 199.5 0C200.328 0 201 0.671573 201 1.5V5.5C201 6.32843 200.328 7 199.5 7C198.672 7 198 6.32843 198 5.5V1.5Z" fill="white" fill-opacity="0.25"/>
<path d="M204 1.5C204 0.671573 204.672 0 205.5 0C206.328 0 207 0.671573 207 1.5V5.5C207 6.32843 206.328 7 205.5 7C204.672 7 204 6.32843 204 5.5V1.5Z" fill="white" fill-opacity="0.25"/>
<path d="M210 1.5C210 0.671573 210.672 0 211.5 0C212.328 0 213 0.671573 213 1.5V5.5C213 6.32843 212.328 7 211.5 7C210.672 7 210 6.32843 210 5.5V1.5Z" fill="white" fill-opacity="0.25"/>
<path d="M216 1.5C216 0.671573 216.672 0 217.5 0C218.328 0 219 0.671573 219 1.5V5.5C219 6.32843 218.328 7 217.5 7C216.672 7 216 6.32843 216 5.5V1.5Z" fill="white" fill-opacity="0.25"/>
<path d="M222 1.5C222 0.671573 222.672 0 223.5 0C224.328 0 225 0.671573 225 1.5V5.5C225 6.32843 224.328 7 223.5 7C222.672 7 222 6.32843 222 5.5V1.5Z" fill="white" fill-opacity="0.25"/>
<path d="M228 1.5C228 0.671573 228.672 0 229.5 0C230.328 0 231 0.671573 231 1.5V5.5C231 6.32843 230.328 7 229.5 7C228.672 7 228 6.32843 228 5.5V1.5Z" fill="white" fill-opacity="0.25"/>
<path d="M234 1.5C234 0.671573 234.672 0 235.5 0C236.328 0 237 0.671573 237 1.5V5.5C237 6.32843 236.328 7 235.5 7C234.672 7 234 6.32843 234 5.5V1.5Z" fill="white" fill-opacity="0.25"/>
<path d="M240 1.5C240 0.671573 240.672 0 241.5 0C242.328 0 243 0.671573 243 1.5V5.5C243 6.32843 242.328 7 241.5 7C240.672 7 240 6.32843 240 5.5V1.5Z" fill="white" fill-opacity="0.25"/>
<path d="M246 1.5C246 0.671573 246.672 0 247.5 0C248.328 0 249 0.671573 249 1.5V5.5C249 6.32843 248.328 7 247.5 7C246.672 7 246 6.32843 246 5.5V1.5Z" fill="white" fill-opacity="0.25"/>
<path d="M252 1.5C252 0.671573 252.672 0 253.5 0C254.328 0 255 0.671573 255 1.5V5.5C255 6.32843 254.328 7 253.5 7C252.672 7 252 6.32843 252 5.5V1.5Z" fill="white" fill-opacity="0.25"/>
<path d="M258 1.5C258 0.671573 258.672 0 259.5 0C260.328 0 261 0.671573 261 1.5V5.5C261 6.32843 260.328 7 259.5 7C258.672 7 258 6.32843 258 5.5V1.5Z" fill="white" fill-opacity="0.25"/>
<path d="M264 1.5C264 0.671573 264.672 0 265.5 0C266.328 0 267 0.671573 267 1.5V5.5C267 6.32843 266.328 7 265.5 7C264.672 7 264 6.32843 264 5.5V1.5Z" fill="white" fill-opacity="0.25"/>
<path d="M270 1.5C270 0.671573 270.672 0 271.5 0C272.328 0 273 0.671573 273 1.5V5.5C273 6.32843 272.328 7 271.5 7C270.672 7 270 6.32843 270 5.5V1.5Z" fill="white" fill-opacity="0.25"/>
<path d="M276 1.5C276 0.671573 276.672 0 277.5 0C278.328 0 279 0.671573 279 1.5V5.5C279 6.32843 278.328 7 277.5 7C276.672 7 276 6.32843 276 5.5V1.5Z" fill="white" fill-opacity="0.25"/>
<path d="M282 1.5C282 0.671573 282.672 0 283.5 0C284.328 0 285 0.671573 285 1.5V5.5C285 6.32843 284.328 7 283.5 7C282.672 7 282 6.32843 282 5.5V1.5Z" fill="white" fill-opacity="0.25"/>
<path d="M288 1.5C288 0.671573 288.672 0 289.5 0C290.328 0 291 0.671573 291 1.5V5.5C291 6.32843 290.328 7 289.5 7C288.672 7 288 6.32843 288 5.5V1.5Z" fill="white" fill-opacity="0.25"/>
<path d="M294 1.5C294 0.671573 294.672 0 295.5 0C296.328 0 297 0.671573 297 1.5V5.5C297 6.32843 296.328 7 295.5 7C294.672 7 294 6.32843 294 5.5V1.5Z" fill="white" fill-opacity="0.25"/>
<path d="M300 1.5C300 0.671573 300.672 0 301.5 0C302.328 0 303 0.671573 303 1.5V5.5C303 6.32843 302.328 7 301.5 7C300.672 7 300 6.32843 300 5.5V1.5Z" fill="white" fill-opacity="0.25"/>
<path d="M0 1.5C0 0.671573 0.671573 0 1.5 0C2.32843 0 3 0.671573 3 1.5V5.5C3 6.32843 2.32843 7 1.5 7C0.671573 7 0 6.32843 0 5.5V1.5Z" fill="white" fill-opacity="0.25"/>
<path d="M6 1.5C6 0.671573 6.67157 0 7.5 0C8.32843 0 9 0.671573 9 1.5V5.5C9 6.32843 8.32843 7 7.5 7C6.67157 7 6 6.32843 6 5.5V1.5Z" fill="white" fill-opacity="0.25"/>
<path d="M12 1.5C12 0.671573 12.6716 0 13.5 0C14.3284 0 15 0.671573 15 1.5V5.5C15 6.32843 14.3284 7 13.5 7C12.6716 7 12 6.32843 12 5.5V1.5Z" fill="white" fill-opacity="0.25"/>
<path d="M18 1.5C18 0.671573 18.6716 0 19.5 0C20.3284 0 21 0.671573 21 1.5V5.5C21 6.32843 20.3284 7 19.5 7C18.6716 7 18 6.32843 18 5.5V1.5Z" fill="white" fill-opacity="0.25"/>
<path d="M24 1.5C24 0.671573 24.6716 0 25.5 0C26.3284 0 27 0.671573 27 1.5V5.5C27 6.32843 26.3284 7 25.5 7C24.6716 7 24 6.32843 24 5.5V1.5Z" fill="white" fill-opacity="0.25"/>
<path d="M30 1.5C30 0.671573 30.6716 0 31.5 0C32.3284 0 33 0.671573 33 1.5V5.5C33 6.32843 32.3284 7 31.5 7C30.6716 7 30 6.32843 30 5.5V1.5Z" fill="white" fill-opacity="0.25"/>
<path d="M36 1.5C36 0.671573 36.6716 0 37.5 0C38.3284 0 39 0.671573 39 1.5V5.5C39 6.32843 38.3284 7 37.5 7C36.6716 7 36 6.32843 36 5.5V1.5Z" fill="white" fill-opacity="0.25"/>
<path d="M42 1.5C42 0.671573 42.6716 0 43.5 0C44.3284 0 45 0.671573 45 1.5V5.5C45 6.32843 44.3284 7 43.5 7C42.6716 7 42 6.32843 42 5.5V1.5Z" fill="white" fill-opacity="0.25"/>
</svg>
