<svg width="181" height="181" viewBox="0 0 181 181" fill="none" xmlns="http://www.w3.org/2000/svg">
<g clip-path="url(#clip0_679_9426)">
<path d="M181 26.2V167.8C181 171.301 179.609 174.658 177.134 177.134C174.658 179.609 171.301 181 167.8 181H26.2C23.1145 181.003 20.1264 179.92 17.76 177.94C18.2333 177.98 18.7133 178 19.2 178H160.8C165.095 177.995 169.212 176.286 172.249 173.249C175.286 170.212 176.995 166.095 177 161.8V20.2C176.999 18.8853 176.838 17.5758 176.52 16.3C177.929 17.5357 179.058 19.0582 179.83 20.7656C180.603 22.4731 181.002 24.3258 181 26.2Z" fill="white"/>
<path d="M13.2 7H154.8C158.224 7 161 9.77583 161 13.2V154.8C161 158.224 158.224 161 154.8 161H13.2C9.77583 161 7 158.224 7 154.8V13.2C7 9.77583 9.77583 7 13.2 7Z" stroke="white" stroke-width="14"/>
<path d="M110.183 128H53.7666C52.2265 128 51.0917 127.676 50.3622 127.027C49.7137 126.298 49.3895 125.163 49.3895 123.623V44.8344C49.3895 43.2943 49.7137 42.2 50.3622 41.5516C51.0917 40.822 52.2265 40.4573 53.7666 40.4573H110.183C111.723 40.4573 112.817 40.822 113.466 41.5516C114.195 42.2 114.56 43.2943 114.56 44.8344V59.0601C114.56 60.6002 114.195 61.735 113.466 62.4646C112.817 63.113 111.723 63.4372 110.183 63.4372H76.625V72.7995H100.335C101.875 72.7995 102.969 73.1642 103.617 73.8937C104.347 74.5422 104.712 75.6365 104.712 77.1766V90.1864C104.712 91.7265 104.347 92.8613 103.617 93.5908C102.969 94.2393 101.875 94.5635 100.335 94.5635H76.625V105.02H110.183C111.723 105.02 112.817 105.385 113.466 106.114C114.195 106.763 114.56 107.857 114.56 109.397V123.623C114.56 125.163 114.195 126.298 113.466 127.027C112.817 127.676 111.723 128 110.183 128ZM103.617 115.841H63.8584V84.3502H93.7688V83.1344H63.8584V52.616H103.617V51.4001H62.6425V117.057H103.617V115.841Z" fill="white"/>
</g>
<defs>
<clipPath id="clip0_679_9426">
<rect width="181" height="181" fill="white"/>
</clipPath>
</defs>
</svg>
