
    <svg width="27" height="27" fill="none" xmlns="http://www.w3.org/2000/svg">
        <mask id="a" fill="#fff">
            <path fill-rule="evenodd" clip-rule="evenodd"
                d="M27 13.5C27 20.956 20.956 27 13.5 27S0 20.956 0 13.5 6.044 0 13.5 0 27 6.044 27 13.5zm-6.376-6.065a2.935 2.935 0 1 1-5.87 0 2.935 2.935 0 0 1 5.87 0zm-8.961 0h.704l5.322 5.4v2.504c0 1.565-.978 2.465-2.035 2.974-.196.117-.94.313-.94.313v1.057a.93.93 0 0 1-.625.86l-.235.079-.43-.43-.43.743-.431.156-.392-.782-.39.782-.431-.156-.43-.744-.431.43-.235-.077a.88.88 0 0 1-.626-.861v-1.057s-.704-.196-.94-.313c-1.134-.509-2.034-1.37-2.034-2.974v-2.896c-.078-2.778 2.27-5.008 5.009-5.008z" />
            <path fill-rule="evenodd" clip-rule="evenodd"
                d="M12.367 7.435h-.704c-2.74 0-5.087 2.23-5.009 5.009v2.895c0 1.604.9 2.465 2.035 2.974.235.117.939.313.939.313v1.057a.88.88 0 0 0 .626.86l.235.079.43-.43.43.743.431.156.392-.782.39.782.431-.156.43-.744.431.43.235-.077a.93.93 0 0 0 .626-.861v-1.057s.743-.196.94-.313c1.056-.509 2.034-1.409 2.034-2.974v-2.504l-5.322-5.4zm-.509 10.917h.666c.195 0 .39-.078.313-.235l-.235-.665a.294.294 0 0 0-.274-.196h-.274a.294.294 0 0 0-.274.196l-.235.665c-.078.157.118.235.313.235zM9.276 16.67h1.213c.313 0 .782-.353.822-.744v-.196c0-.43-.313-.626-.705-.782-.391-.157-1.095-.43-1.526-.43-.704 0-.9.352-.939.665-.027.08-.017.198-.008.302a1.6 1.6 0 0 1 .008.128c0 .391.235 1.017 1.135 1.057zm3.835-.979v.196c0 .43.47.783.821.743h1.213c.9-.039 1.096-.665 1.135-1.056v-.43c-.039-.314-.274-.666-.939-.666-.43 0-1.135.274-1.526.43-.391.196-.704.353-.704.783z" />
            <path
                d="M10.489 16.67H9.276c-.9-.04-1.135-.666-1.135-1.057a1.6 1.6 0 0 0-.008-.128c-.009-.104-.019-.222.008-.302.04-.313.235-.666.94-.666.43 0 1.134.274 1.525.43.392.157.705.353.705.783v.196c-.04.391-.51.744-.822.744zM12.524 18.352h-.666c-.195 0-.39-.078-.313-.235l.235-.665a.294.294 0 0 1 .274-.196h.274c.117 0 .235.079.274.196l.235.665c.078.157-.118.235-.313.235zM13.11 15.887v-.196c0-.43.314-.587.705-.782.391-.157 1.096-.43 1.526-.43.665 0 .9.351.94.665v.43c-.04.391-.236 1.017-1.136 1.056h-1.213c-.352.04-.821-.313-.821-.743zM17.689 8.726a1.291 1.291 0 1 0 0-2.583 1.291 1.291 0 0 0 0 2.583z" />
            <path d="M17.689 4.5a2.935 2.935 0 0 0-2.935 2.935h1.644c0-.713.578-1.292 1.29-1.292V4.5z" />
            <path
                d="M14.754 7.435a2.935 2.935 0 0 0 2.935 2.935V8.726a1.291 1.291 0 0 1-1.291-1.291h-1.644zM17.689 10.37a2.935 2.935 0 0 0 0-5.87v1.643a1.291 1.291 0 0 1 0 2.583v1.644z" />
        </mask>
        <path fill-rule="evenodd" clip-rule="evenodd"
            d="M27 13.5C27 20.956 20.956 27 13.5 27S0 20.956 0 13.5 6.044 0 13.5 0 27 6.044 27 13.5zm-6.376-6.065a2.935 2.935 0 1 1-5.87 0 2.935 2.935 0 0 1 5.87 0zm-8.961 0h.704l5.322 5.4v2.504c0 1.565-.978 2.465-2.035 2.974-.196.117-.94.313-.94.313v1.057a.93.93 0 0 1-.625.86l-.235.079-.43-.43-.43.743-.431.156-.392-.782-.39.782-.431-.156-.43-.744-.431.43-.235-.077a.88.88 0 0 1-.626-.861v-1.057s-.704-.196-.94-.313c-1.134-.509-2.034-1.37-2.034-2.974v-2.896c-.078-2.778 2.27-5.008 5.009-5.008z"
            fill="#AD1616" />
        <path fill-rule="evenodd" clip-rule="evenodd"
            d="M12.367 7.435h-.704c-2.74 0-5.087 2.23-5.009 5.009v2.895c0 1.604.9 2.465 2.035 2.974.235.117.939.313.939.313v1.057a.88.88 0 0 0 .626.86l.235.079.43-.43.43.743.431.156.392-.782.39.782.431-.156.43-.744.431.43.235-.077a.93.93 0 0 0 .626-.861v-1.057s.743-.196.94-.313c1.056-.509 2.034-1.409 2.034-2.974v-2.504l-5.322-5.4zm-.509 10.917h.666c.195 0 .39-.078.313-.235l-.235-.665a.294.294 0 0 0-.274-.196h-.274a.294.294 0 0 0-.274.196l-.235.665c-.078.157.118.235.313.235zM9.276 16.67h1.213c.313 0 .782-.353.822-.744v-.196c0-.43-.313-.626-.705-.782-.391-.157-1.095-.43-1.526-.43-.704 0-.9.352-.939.665-.027.08-.017.198-.008.302a1.6 1.6 0 0 1 .008.128c0 .391.235 1.017 1.135 1.057zm3.835-.979v.196c0 .43.47.783.821.743h1.213c.9-.039 1.096-.665 1.135-1.056v-.43c-.039-.314-.274-.666-.939-.666-.43 0-1.135.274-1.526.43-.391.196-.704.353-.704.783z"
            fill="#AD1616" />
        <path
            d="M10.489 16.67H9.276c-.9-.04-1.135-.666-1.135-1.057a1.6 1.6 0 0 0-.008-.128c-.009-.104-.019-.222.008-.302.04-.313.235-.666.94-.666.43 0 1.134.274 1.525.43.392.157.705.353.705.783v.196c-.04.391-.51.744-.822.744zM12.524 18.352h-.666c-.195 0-.39-.078-.313-.235l.235-.665a.294.294 0 0 1 .274-.196h.274c.117 0 .235.079.274.196l.235.665c.078.157-.118.235-.313.235zM13.11 15.887v-.196c0-.43.314-.587.705-.782.391-.157 1.096-.43 1.526-.43.665 0 .9.351.94.665v.43c-.04.391-.236 1.017-1.136 1.056h-1.213c-.352.04-.821-.313-.821-.743zM17.689 8.726a1.291 1.291 0 1 0 0-2.583 1.291 1.291 0 0 0 0 2.583z"
            fill="#AD1616" />
        <path d="M17.689 4.5a2.935 2.935 0 0 0-2.935 2.935h1.644c0-.713.578-1.292 1.29-1.292V4.5z" fill="#AD1616" />
        <path
            d="M14.754 7.435a2.935 2.935 0 0 0 2.935 2.935V8.726a1.291 1.291 0 0 1-1.291-1.291h-1.644zM17.689 10.37a2.935 2.935 0 0 0 0-5.87v1.643a1.291 1.291 0 0 1 0 2.583v1.644z"
            fill="#AD1616" />
        <path
            d="m11.545 18.117.224.112a.248.248 0 0 0 .012-.028l-.236-.084zm.235-.665.236.083.001-.004-.237-.079zm.822 0-.237.08.001.003.236-.083zm.235.665-.236.084c.003.01.007.019.012.028l.224-.112zm-.47-10.682.178-.176a.25.25 0 0 0-.178-.074v.25zm-5.713 5.009h.25v-.008l-.25.008zm2.035 5.869.112-.224-.01-.004-.102.228zm.939.313h.25a.25.25 0 0 0-.183-.24l-.067.24zm.626 1.918.08-.238-.008-.002-.072.24zm.235.078-.08.237a.25.25 0 0 0 .257-.06l-.177-.177zm.43-.43.217-.126a.25.25 0 0 0-.393-.051l.176.176zm.43.743-.216.125c.03.05.076.09.131.11l.086-.235zm.431.156-.085.235a.25.25 0 0 0 .309-.123l-.224-.112zm.392-.782.223-.112a.25.25 0 0 0-.447 0l.223.112zm.39.782-.223.112a.25.25 0 0 0 .31.123l-.086-.235zm.431-.156.086.235a.25.25 0 0 0 .13-.11l-.216-.125zm.43-.744.177-.176a.25.25 0 0 0-.393.051l.217.125zm.431.43-.177.178a.25.25 0 0 0 .256.06l-.079-.237zm.235-.077-.08-.238.08.238zm.626-1.918-.064-.242a.25.25 0 0 0-.186.242h.25zm.94-.313-.11-.225a.216.216 0 0 0-.02.01l.13.215zm2.034-5.478h.25a.25.25 0 0 0-.072-.176l-.178.176zM9.276 16.67l-.011.25h.01v-.25zM8.14 15.183l.237.079a.25.25 0 0 0 .011-.048l-.248-.031zm3.17.743.248.025a.26.26 0 0 0 .002-.025h-.25zm2.504-1.017-.093-.232a.23.23 0 0 0-.019.008l.112.224zm2.465.234h.25c0-.01 0-.02-.002-.03l-.248.03zm0 .43.249.026a.26.26 0 0 0 .001-.025h-.25zm-1.135 1.057v.25h.011l-.01-.25zm-1.213 0v-.25c-.009 0-.018 0-.027.002l.027.248zm-5.799-1.145.25-.021-.25.021zm12.24-8.05a2.685 2.685 0 0 1-2.684 2.685v.5a3.185 3.185 0 0 0 3.185-3.185h-.5zM17.69 10.12a2.685 2.685 0 0 1-2.685-2.685h-.5a3.185 3.185 0 0 0 3.185 3.185v-.5zm-2.685-2.685A2.685 2.685 0 0 1 17.69 4.75v-.5a3.185 3.185 0 0 0-3.185 3.185h.5zM17.69 4.75a2.685 2.685 0 0 1 2.685 2.685h.5a3.185 3.185 0 0 0-3.185-3.185v.5zm1.041 2.685c0 .575-.466 1.041-1.041 1.041v.5c.851 0 1.541-.69 1.541-1.541h-.5zM17.69 8.476a1.041 1.041 0 0 1-1.041-1.041h-.5c0 .851.69 1.541 1.54 1.541v-.5zm-1.041-1.041c0-.575.466-1.042 1.04-1.042v-.5c-.85 0-1.54.69-1.54 1.542h.5zm1.04-1.042c.576 0 1.042.467 1.042 1.042h.5c0-.851-.69-1.542-1.541-1.542v.5zm.25-.25V3.13h-.5v3.013h.5zm-.5 2.583v3.013h.5V8.726h-.5zm-1.001-1.541h-3.013v.5h3.013v-.5zm2.582.5h2.974v-.5H19.02v.5zm-6.495 10.417h-.666v.5h.666v-.5zm-.666 0a.425.425 0 0 1-.118-.017l-.01-.004s.006.003.014.012a.13.13 0 0 1 .025.044.126.126 0 0 1 0 .092l-.447-.223a.378.378 0 0 0-.024.298c.036.1.108.164.17.202.119.073.27.096.39.096v-.5zm-.077.099.235-.666-.472-.166-.234.665.471.167zm.236-.67a.035.035 0 0 1 .014-.016.045.045 0 0 1 .023-.009v-.5a.544.544 0 0 0-.511.367l.474.158zm.037-.024h.274v-.5h-.274v.5zm.274 0c.004 0 .013.001.023.008s.013.013.014.016l.474-.158a.544.544 0 0 0-.511-.367v.5zm.038.028.235.666.471-.167-.234-.665-.472.166zm.247.694a.127.127 0 0 1 0-.092.13.13 0 0 1 .025-.044.062.062 0 0 1 .014-.012l-.01.004a.426.426 0 0 1-.118.017v.5a.765.765 0 0 0 .39-.096.396.396 0 0 0 .17-.202.378.378 0 0 0-.024-.298l-.447.223zm-.246-11.044h-.704v.5h.704v-.5zm-.704 0c-2.87 0-5.341 2.336-5.259 5.266l.5-.015c-.074-2.627 2.15-4.751 4.759-4.751v-.5zm-5.009 5.259h-.25V15.34h.5V12.444h-.25zm-.25 2.895c0 .853.24 1.524.643 2.05.4.523.948.887 1.54 1.152l.204-.456c-.543-.244-1.013-.564-1.347-1-.33-.432-.54-.994-.54-1.746h-.5zm2.173 3.198c.14.07.395.153.596.215a14.896 14.896 0 0 0 .38.113l.006.001h.002v.001l.067-.24.067-.242h-.002l-.006-.002-.022-.006-.081-.023a14.53 14.53 0 0 1-.264-.08 4.441 4.441 0 0 1-.52-.185l-.223.448zm.801.09v1.056h.5v-1.057h-.5zm0 1.056c0 .492.298.948.804 1.1l.144-.479a.63.63 0 0 1-.448-.621h-.5zm.797 1.098.235.078.158-.474-.235-.079-.158.475zm.49.018.431-.43-.354-.354-.43.43.354.354zm.038-.482.43.743.433-.25-.43-.744-.433.25zm.561.853.43.156.172-.47-.43-.156-.172.47zm.74.033.391-.782-.447-.224-.391.783.447.223zm-.056-.782.391.782.447-.223-.39-.783-.448.224zm.7.905.43-.156-.17-.47-.43.156.17.47zm.562-.266.43-.743-.433-.251-.43.744.433.25zm.037-.692.43.43.354-.353-.43-.43-.354.353zm.686.49.235-.077-.158-.475-.235.079.158.474zm.235-.077a1.18 1.18 0 0 0 .797-1.098h-.5a.68.68 0 0 1-.455.623l.158.475zm.797-1.098v-1.057h-.5v1.057h.5zm-.25-1.057.064.242h.002l.007-.002.024-.007a10.945 10.945 0 0 0 .697-.212c.097-.035.201-.076.274-.12l-.258-.428a1.29 1.29 0 0 1-.185.077 6.436 6.436 0 0 1-.301.098c-.103.031-.2.059-.272.079l-.085.023-.023.006a.255.255 0 0 1-.006.002h-.001l.063.242zm1.047-.088c1.105-.532 2.177-1.501 2.177-3.199h-.5c0 1.433-.885 2.263-1.893 2.749l.216.45zm2.177-3.199V12.835h-.5V15.34h.5zm-7.45 1.08H9.276v.5H10.488v-.5zm-1.202 0c-.388-.016-.601-.155-.722-.303a.813.813 0 0 1-.174-.503h-.5c0 .24.07.554.286.818.222.272.575.466 1.088.488l.022-.5zm-.898-1.205a.455.455 0 0 1 .139-.295c.083-.074.24-.152.552-.152v-.5c-.393 0-.685.1-.886.28-.2.18-.277.41-.301.605l.496.062zm.691-.447c.174 0 .427.058.703.145.269.085.535.19.73.268l.186-.464a11.13 11.13 0 0 0-.766-.28c-.282-.09-.597-.169-.853-.169v.5zm1.433.413c.19.076.328.15.419.237.08.077.129.17.129.313h.5a.9.9 0 0 0-.283-.674c-.163-.157-.377-.26-.579-.34l-.186.464zm.548.55v.196h.5v-.196h-.5zm0 .171c-.01.108-.087.24-.22.353-.135.114-.276.166-.352.166v.5c.236 0 .487-.126.675-.285.19-.16.367-.401.395-.684l-.497-.05zm2.3-.014v-.196h-.5v.196h.5zm0-.196c0-.14.045-.222.125-.295.095-.089.236-.161.44-.264l-.223-.447c-.186.093-.398.197-.556.343a.86.86 0 0 0-.286.663h.5zm.547-.55c.195-.078.461-.183.73-.268.276-.087.529-.145.703-.145v-.5c-.256 0-.571.08-.853.168-.288.091-.57.202-.766.28l.186.465zm1.433-.413c.288 0 .45.076.54.154.092.08.138.185.151.293l.496-.063a.952.952 0 0 0-.319-.607c-.203-.176-.49-.277-.868-.277v.5zm.69.415V15.573h.5V15.143h-.5zm0 .406a1.019 1.019 0 0 1-.191.53c-.117.147-.32.285-.706.302l.022.5c.514-.023.86-.218 1.076-.492.208-.263.275-.572.297-.79l-.498-.05zm-.886.831H13.933v.5H15.145v-.5zm-1.24.002c-.09.01-.229-.032-.354-.138a.488.488 0 0 1-.19-.357h-.5c0 .308.166.568.367.738.197.168.47.283.732.254l-.055-.497zM12.189 7.61l5.322 5.4.356-.35-5.322-5.4-.356.35zm5.25 5.225v2.504h.5v-2.504h-.5zM6.904 15.339v-2.896h-.5v2.896h.5zm2.372 1.58h1.213v-.5H9.276v.5zm-1.372-1.815a.7.7 0 0 0-.03.223c0 .064.006.13.01.18l.498-.043a1.81 1.81 0 0 1-.006-.187l.002-.015-.474-.158zm-.02.403c.004.05.007.082.007.106h.5c0-.05-.005-.106-.009-.15l-.498.044zm6.048 1.373h1.213v-.5h-1.213v.5zm2.598-1.306v-.43h-.5v.43h.5zm-1.776-7.89h1.644v-.5h-1.644v.5zm3.185-1.54V4.5h-.5v1.643h.5zm0 4.226V8.726h-.5v1.644h.5zM26.5 13.5c0 7.18-5.82 13-13 13v1c7.732 0 14-6.268 14-14h-1zm-13 13c-7.18 0-13-5.82-13-13h-1c0 7.732 6.268 14 14 14v-1zm-13-13c0-7.18 5.82-13 13-13v-1c-7.732 0-14 6.268-14 14h1zm13-13c7.18 0 13 5.82 13 13h1c0-7.732-6.268-14-14-14v1z"
            fill="#fff" mask="url(#a)" />
    </svg>