<svg width="1339" height="1080" viewBox="0 0 1339 1080" fill="none" xmlns="http://www.w3.org/2000/svg">
<path d="M673.262 1085.7L673.107 1085.63L672.94 1085.67C658.626 1088.85 644.135 1091.17 629.545 1092.63C623.482 1092.86 617.373 1093.23 611.255 1093.61C590.37 1094.89 569.378 1096.17 549.721 1091.85C521.682 1085.65 494.679 1074.18 467.847 1062.79C463.332 1060.87 458.823 1058.96 454.314 1057.07C448.948 1054.8 444.165 1051.13 439.453 1047.12C438.232 1046.08 437.015 1045.02 435.793 1043.95C432.32 1040.92 428.815 1037.85 425.107 1035.24L425.106 1035.24C377.744 1002.06 353.23 955.781 352.834 898.863C352.834 878.632 349.425 861.334 341.235 847.007C333.04 832.67 320.085 821.352 301.075 813.041L300.875 813.499L301.075 813.04C286.747 806.783 272.679 799.861 258.61 792.939C254.911 791.119 251.213 789.299 247.509 787.491C229.726 778.81 211.84 770.411 193.367 763.656L193.195 764.126L193.366 763.656C165.557 753.536 144.108 738.354 129.463 718.797C114.819 699.241 106.955 675.282 106.362 647.57C105.567 610.822 96.7793 576.755 85.6076 543.538C80.8017 529.249 75.5524 515.11 70.3075 500.983C69.4567 498.692 68.6061 496.401 67.7575 494.109C61.676 477.688 55.6975 461.249 50.5163 444.555L50.0387 444.704L50.5162 444.555C17.0797 336.855 -11.3924 228.173 5.53466 114.472C29.7671 -47.6024 117.119 -169.239 255.796 -253.63C372.569 -324.547 500.504 -356.102 637.579 -358.311L637.571 -358.811L637.579 -358.311C757.798 -360.295 873.851 -346.978 986.381 -302.398L986.565 -302.863L986.381 -302.398C1219.53 -210.24 1377.63 11.5332 1328.55 273.365C1316.93 335.451 1298.09 396.147 1279.23 456.879C1269.86 487.06 1260.49 517.25 1251.99 547.623C1250.85 551.721 1249.65 555.834 1248.44 559.96C1242.83 579.189 1237.14 598.7 1236.11 618.362C1234.24 652.476 1228.04 682.897 1213.49 707.94C1198.95 732.969 1176.04 752.665 1140.66 765.299C1113.2 775.148 1086.99 788.533 1060.82 801.901C1049.16 807.86 1037.5 813.816 1025.74 819.453L1025.95 819.904L1025.74 819.453C1011.74 826.182 1001.81 835.418 995.403 846.725C988.996 858.028 986.121 871.369 986.178 886.285C986.178 953.56 957.934 1002.79 902.958 1043.35L903.255 1043.75L902.958 1043.35C870.106 1067.67 833.737 1080.12 797.59 1090.61C781.827 1095.15 764.887 1095.77 747.571 1095.14C739.389 1094.84 731.131 1094.25 722.877 1093.67L721.439 1093.57C712.718 1092.96 704.006 1092.36 695.416 1092.12C687.737 1091.18 680.257 1089.01 673.262 1085.7ZM142.218 410.995C158.173 352.952 189.578 305.503 239.852 260.876C239.174 264.998 238.627 268.411 238.159 271.336C237.138 277.707 236.488 281.762 235.664 285.771L235.664 285.773C233.411 296.978 231.082 308.174 228.753 319.371C214.042 390.099 199.325 460.86 203.634 534.239L203.634 534.24C205.536 566.035 212.464 593.717 226.84 616.599C241.221 639.488 263.031 657.534 294.626 670.096L294.811 669.631L294.626 670.096C359.158 695.71 420.806 729.654 447.362 798.939L447.829 798.76L447.362 798.94C459.43 830.344 462.827 865.59 466.129 899.845C466.323 901.863 466.518 903.878 466.713 905.888C467.876 917.842 469.31 927.528 471.514 935.333C473.719 943.141 476.703 949.095 480.983 953.56C489.514 962.46 503.054 965.297 525.246 965.46C535.333 981.945 544.434 990.791 554.856 991.832C560.092 992.356 565.595 990.9 571.635 987.56C577.574 984.276 584.06 979.154 591.364 972.244C603.365 984.827 612.798 991.384 622.655 992.293C632.602 993.211 642.831 988.365 656.371 978.593C660.08 976.533 664.228 975.392 668.468 975.267C672.704 975.141 676.908 976.033 680.729 977.866C694.878 987.797 705.019 992.825 715.066 992.082C725.029 991.344 734.764 984.942 748.124 972.465C761.71 986.397 772.664 993.028 783.068 991.796C788.315 991.174 793.355 988.558 798.46 983.99C803.513 979.468 808.653 973.012 814.145 964.623C834 965.447 846.452 963.935 854.597 957.076C862.78 950.185 866.49 938.006 869.237 917.924C869.695 914.59 869.745 911.189 869.795 907.812C869.802 907.39 869.808 906.969 869.815 906.549C869.879 902.744 870.006 898.974 870.761 895.283L870.763 895.274C872.582 885.561 874.03 875.65 875.479 865.743C876.489 858.83 877.5 851.918 878.635 845.077C881.403 828.402 884.924 812.076 891.024 796.906L891.025 796.906C918.147 729.087 978.555 695.141 1042.12 670.096C1074.53 657.311 1097.8 638.971 1112.71 615.724C1127.62 592.479 1134.13 564.371 1133.11 532.097C1131.54 482.553 1125.19 433.111 1118.85 383.747C1117.17 370.672 1115.49 357.602 1113.9 344.537C1111.68 326.633 1107.83 308.902 1103.99 291.2C1102.32 283.526 1100.66 275.857 1099.13 268.182C1148.92 305.859 1180.34 353.948 1198.27 418.026L1198.74 419.706L1199.23 418.032C1201.33 410.869 1203.33 404.493 1205.17 398.616C1208.68 387.413 1211.62 378.022 1213.63 368.451C1230.57 290.033 1234.23 209.329 1224.47 129.699L1223.97 129.76L1224.47 129.698C1214.14 46.0415 1180.6 -27.192 1118.68 -86.742L1118.68 -86.7433C1047.07 -155.072 960.267 -193.369 864.59 -212.713C687.129 -248.61 512.296 -243.456 343.917 -170.054C243.778 -126.415 170.165 -55.2922 132.085 49.3224L132.555 49.4934L132.085 49.3225C104.276 125.786 106.099 205.069 112.504 283.984C114.891 313.496 120.386 342.808 125.869 372.06C128.332 385.2 130.793 398.327 132.969 411.454L133.042 411.899L133.493 411.872L141.767 411.362L142.123 411.34L142.218 410.995ZM451.541 303.272L451.542 303.273C490.226 345.084 527.201 388.239 564.452 431.715C580.611 450.574 596.821 469.494 613.245 488.39C610.636 494.766 608.206 500.752 605.888 506.463C600.748 519.121 596.156 530.433 591.375 541.667C574.434 581.034 547.142 601.191 516.855 608.84C486.542 616.496 453.183 611.632 424.143 600.857L423.969 601.325L424.143 600.857C376.882 583.349 335.387 535.078 316.019 479.041C296.655 423.015 299.447 359.346 340.587 311.024C357.077 291.649 376.263 280.402 395.572 278.639C414.865 276.877 434.37 284.575 451.541 303.272ZM881.749 308.032L881.379 307.695L881.749 308.032C901.717 286.082 922.828 276.396 943.302 278.136C963.785 279.877 983.774 293.064 1001.46 317.174L1001.46 317.175C1027.55 352.625 1036.75 387.938 1034.51 423.061C1032.26 458.198 1018.56 493.181 998.771 527.951C982.173 556.459 957.636 579.518 928.155 594.311C898.676 609.104 865.529 614.993 832.76 611.26C779.66 604.211 756.126 566.184 737.663 522.339L737.663 522.338C734.732 515.409 732.601 508.161 730.15 499.824C728.984 495.859 727.746 491.648 726.315 487.107C742.014 468.942 757.562 450.734 773.079 432.563C808.984 390.516 844.717 348.669 881.749 308.032ZM663.292 750.546L662.915 750.083L662.525 750.535C660.567 752.808 658.741 755.323 656.972 757.848C656.492 758.534 656.016 759.219 655.542 759.902C654.268 761.739 653.012 763.548 651.735 765.258C648.223 769.961 644.65 773.762 640.369 775.099L640.367 775.099C632.128 777.705 622.796 780.33 613.773 781.536C604.74 782.743 596.078 782.518 589.146 779.483L588.945 779.941L589.145 779.483C586.665 778.398 584.159 776.104 581.833 773.02C579.513 769.944 577.4 766.12 575.691 762.034C572.264 753.838 570.508 744.699 571.865 738.497L571.867 738.489C583.809 678.932 618.844 626.534 669.302 592.748C721.246 629.089 747.572 677.472 757.509 734.565C759.141 743.994 758.755 754.013 755.193 762.776C751.638 771.524 744.907 779.047 733.786 783.502C722.63 787.971 712.602 788.368 703.441 785.627C694.271 782.882 685.927 776.978 678.172 768.771C675.339 765.755 672.772 762.493 669.514 758.353C667.707 756.056 665.687 753.49 663.292 750.546Z" fill="url(#paint0_linear_7_79)" fill-opacity="0.02" stroke="white"/>
<defs>
<linearGradient id="paint0_linear_7_79" x1="669.002" y1="-359" x2="669.002" y2="803.745" gradientUnits="userSpaceOnUse">
<stop stop-color="#A2F9FF"/>
<stop offset="1" stop-color="#87F8FF"/>
</linearGradient>
</defs>
</svg>
