<svg width="46" height="46" viewBox="0 0 46 46" fill="none" xmlns="http://www.w3.org/2000/svg">
<path d="M21.7381 3.86988C21.8612 3.62647 22.0438 3.42314 22.2665 3.28143C22.4891 3.13971 22.7436 3.06489 23.0029 3.06489C23.2622 3.06489 23.5166 3.13971 23.7393 3.28143C23.9619 3.42314 24.1445 3.62647 24.2677 3.86988L42.952 40.6674C43.0712 40.9011 43.1313 41.1639 43.1265 41.4299C43.1217 41.696 43.0521 41.9561 42.9245 42.1847C42.7969 42.4133 42.6157 42.6026 42.3988 42.7339C42.1818 42.8652 41.9366 42.934 41.6872 42.9335H4.31283C4.06383 42.9337 3.81905 42.8648 3.6025 42.7337C3.38595 42.6025 3.20506 42.4136 3.07754 42.1855C2.95002 41.9573 2.88026 41.6977 2.87509 41.4321C2.86992 41.1666 2.92952 40.9041 3.04805 40.6705L21.7381 3.86988ZM26.7915 2.41024C25.1616 -0.803413 20.8412 -0.803413 19.2114 2.41024L0.52136 39.2078C0.165316 39.9083 -0.0140427 40.6954 0.000858241 41.4921C0.0157592 42.2887 0.224408 43.0676 0.606363 43.7524C0.988317 44.4372 1.53048 45.0043 2.17972 45.3983C2.82896 45.7923 3.56301 45.9997 4.30996 46H41.6872C42.4344 46.0002 43.1688 45.7933 43.8184 45.3995C44.468 45.0057 45.0106 44.4386 45.3929 43.7537C45.7752 43.0688 45.9841 42.2898 45.9991 41.4928C46.0142 40.6959 45.8348 39.9085 45.4786 39.2078L26.7915 2.41024ZM24.4344 16.8655C24.4344 16.4589 24.283 16.0689 24.0134 15.7814C23.7439 15.4938 23.3783 15.3323 22.9971 15.3323C22.6159 15.3323 22.2504 15.4938 21.9808 15.7814C21.7113 16.0689 21.5599 16.4589 21.5599 16.8655V29.1314C21.5599 29.538 21.7113 29.928 21.9808 30.2156C22.2504 30.5031 22.6159 30.6646 22.9971 30.6646C23.3783 30.6646 23.7439 30.5031 24.0134 30.2156C24.283 29.928 24.4344 29.538 24.4344 29.1314V16.8655ZM25.153 36.0309C25.153 36.6409 24.9259 37.2259 24.5216 37.6572C24.1173 38.0885 23.5689 38.3308 22.9971 38.3308C22.4254 38.3308 21.877 38.0885 21.4727 37.6572C21.0684 37.2259 20.8412 36.6409 20.8412 36.0309C20.8412 35.421 21.0684 34.836 21.4727 34.4047C21.877 33.9734 22.4254 33.7311 22.9971 33.7311C23.5689 33.7311 24.1173 33.9734 24.5216 34.4047C24.9259 34.836 25.153 35.421 25.153 36.0309Z" fill="#E02E2E"/>
</svg>
