<svg width="18" height="20" viewBox="0 0 18 20" fill="none" xmlns="http://www.w3.org/2000/svg">
<path d="M1 19V17.875C1 15.7864 1.84285 13.7834 3.34315 12.3065C4.84344 10.8297 6.87827 10 9 10M9 10C11.1217 10 13.1566 10.8297 14.6569 12.3065C16.1571 13.7834 17 15.7864 17 17.875V19M9 10C10.2124 10 11.3752 9.52589 12.2325 8.68198C13.0898 7.83807 13.5714 6.69347 13.5714 5.5C13.5714 4.30653 13.0898 3.16193 12.2325 2.31802C11.3752 1.47411 10.2124 1 9 1C7.78758 1 6.62482 1.47411 5.76751 2.31802C4.9102 3.16193 4.42857 4.30653 4.42857 5.5C4.42857 6.69347 4.9102 7.83807 5.76751 8.68198C6.62482 9.52589 7.78758 10 9 10Z" stroke="#E02E2E" stroke-width="1.5" stroke-linecap="round" stroke-linejoin="round"/>
</svg>
