<svg width="20" height="20" viewBox="0 0 20 20" fill="none" xmlns="http://www.w3.org/2000/svg">
<path d="M8.26653 0C6.93632 6.19804e-06 5.62577 0.321019 4.44614 0.935778C3.26652 1.55054 2.25267 2.44089 1.49068 3.53122C0.7287 4.62155 0.241091 5.87967 0.0692612 7.19873C-0.102569 8.51779 0.0464553 9.85883 0.503679 11.108C0.960904 12.3571 1.71282 13.4775 2.69559 14.374C3.67835 15.2704 4.86294 15.9165 6.14875 16.2572C7.43456 16.598 8.78362 16.6235 10.0814 16.3315C11.3791 16.0394 12.5872 15.4385 13.6031 14.5798C13.5787 14.8809 13.6809 15.1909 13.912 15.4209L18.1786 19.6875C18.3787 19.8876 18.6501 20 18.9331 20C19.216 20 19.4874 19.8876 19.6875 19.6875C19.8876 19.4874 20 19.2161 20 18.9331C20 18.6501 19.8876 18.3788 19.6875 18.1787L15.4209 13.9121C15.3115 13.8026 15.1796 13.7183 15.0343 13.665C14.8891 13.6117 14.734 13.5906 14.5798 13.6032C15.5973 12.3995 16.2495 10.93 16.4594 9.36787C16.6694 7.80579 16.4285 6.21623 15.7649 4.78656C15.1014 3.35688 14.043 2.1467 12.7145 1.29864C11.386 0.450576 9.84267 -6.20771e-06 8.26653 0ZM1.59994 8.26657C1.59994 7.3911 1.77238 6.5242 2.10741 5.71537C2.44243 4.90655 2.93349 4.17163 3.55254 3.55258C4.17159 2.93353 4.90651 2.44247 5.71534 2.10744C6.52416 1.77242 7.39106 1.59998 8.26653 1.59998C9.142 1.59998 10.0089 1.77242 10.8177 2.10744C11.6265 2.44247 12.3615 2.93353 12.9805 3.55258C13.5996 4.17163 14.0906 4.90655 14.4257 5.71537C14.7607 6.5242 14.9331 7.3911 14.9331 8.26657C14.9331 10.0347 14.2307 11.7303 12.9805 12.9806C11.7303 14.2308 10.0346 14.9332 8.26653 14.9332C6.49844 14.9332 4.80277 14.2308 3.55254 12.9806C2.30231 11.7303 1.59994 10.0347 1.59994 8.26657Z" fill="white" fill-opacity="0.1"/>
</svg>
