<svg width="26" height="26" viewBox="0 0 26 26" fill="none" xmlns="http://www.w3.org/2000/svg">
<path d="M13 0C13.3448 0 13.6754 0.136964 13.9192 0.380761C14.163 0.624558 14.3 0.955218 14.3 1.3V1.3715C16.9375 1.66714 19.3963 2.85034 21.273 4.72703C23.1497 6.60372 24.3329 9.06248 24.6285 11.7H24.7C25.0448 11.7 25.3754 11.837 25.6192 12.0808C25.863 12.3246 26 12.6552 26 13C26 13.3448 25.863 13.6754 25.6192 13.9192C25.3754 14.163 25.0448 14.3 24.7 14.3H24.6285C24.3329 16.9375 23.1497 19.3963 21.273 21.273C19.3963 23.1497 16.9375 24.3329 14.3 24.6285V24.7C14.3 25.0448 14.163 25.3754 13.9192 25.6192C13.6754 25.863 13.3448 26 13 26C12.6552 26 12.3246 25.863 12.0808 25.6192C11.837 25.3754 11.7 25.0448 11.7 24.7V24.6285C9.06248 24.3329 6.60372 23.1497 4.72703 21.273C2.85034 19.3963 1.66714 16.9375 1.3715 14.3H1.3C0.955218 14.3 0.624558 14.163 0.380761 13.9192C0.136964 13.6754 0 13.3448 0 13C0 12.6552 0.136964 12.3246 0.380761 12.0808C0.624558 11.837 0.955218 11.7 1.3 11.7H1.3715C1.66714 9.06248 2.85034 6.60372 4.72703 4.72703C6.60372 2.85034 9.06248 1.66714 11.7 1.3715V1.3C11.7 0.955218 11.837 0.624558 12.0808 0.380761C12.3246 0.136964 12.6552 0 13 0ZM14.3 3.991V5.2C14.2996 5.53134 14.1728 5.85004 13.9453 6.09098C13.7178 6.33192 13.407 6.4769 13.0762 6.49632C12.7454 6.51574 12.4197 6.40812 12.1656 6.19546C11.9115 5.98279 11.7482 5.68112 11.7091 5.3521L11.7 5.2V3.991C9.81242 4.26517 8.05845 5.12469 6.68523 6.44847C5.31201 7.77225 4.38877 9.49354 4.0456 11.3698L3.9923 11.7H5.2C5.53134 11.7004 5.85004 11.8272 6.09098 12.0547C6.33192 12.2822 6.4769 12.593 6.49632 12.9238C6.51574 13.2546 6.40812 13.5803 6.19546 13.8344C5.98279 14.0885 5.68112 14.2518 5.3521 14.2909L5.2 14.3H3.991C4.26517 16.1876 5.12469 17.9416 6.44847 19.3148C7.77225 20.688 9.49354 21.6112 11.3698 21.9544L11.7 22.0077V20.8C11.7004 20.4687 11.8272 20.15 12.0547 19.909C12.2822 19.6681 12.593 19.5231 12.9238 19.5037C13.2546 19.4843 13.5803 19.5919 13.8344 19.8045C14.0885 20.0172 14.2518 20.3189 14.2909 20.6479L14.3 20.8V22.009C16.1876 21.7348 17.9416 20.8753 19.3148 19.5515C20.688 18.2278 21.6112 16.5065 21.9544 14.6302L22.0077 14.3H20.8C20.4687 14.2996 20.15 14.1728 19.909 13.9453C19.6681 13.7178 19.5231 13.407 19.5037 13.0762C19.4843 12.7454 19.5919 12.4197 19.8045 12.1656C20.0172 11.9115 20.3189 11.7482 20.6479 11.7091L20.8 11.7H22.009C21.7348 9.81242 20.8753 8.05845 19.5515 6.68523C18.2278 5.31201 16.5065 4.38877 14.6302 4.0456L14.3 3.991ZM13 11.05C13.5172 11.05 14.0132 11.2554 14.3789 11.6211C14.7446 11.9868 14.95 12.4828 14.95 13C14.95 13.5172 14.7446 14.0132 14.3789 14.3789C14.0132 14.7446 13.5172 14.95 13 14.95C12.4828 14.95 11.9868 14.7446 11.6211 14.3789C11.2554 14.0132 11.05 13.5172 11.05 13C11.05 12.4828 11.2554 11.9868 11.6211 11.6211C11.9868 11.2554 12.4828 11.05 13 11.05Z" fill="white"/>
</svg>
