<svg width="28" height="28" viewBox="0 0 28 28" fill="none" xmlns="http://www.w3.org/2000/svg">
<path d="M22.3424 21.1268C22.4222 21.2067 22.4855 21.3015 22.5288 21.4058C22.572 21.5101 22.5942 21.6219 22.5942 21.7348C22.5942 21.8478 22.572 21.9596 22.5288 22.0639C22.4855 22.1682 22.4222 22.263 22.3424 22.3429C22.2625 22.4227 22.1677 22.486 22.0634 22.5292C21.9591 22.5725 21.8473 22.5947 21.7344 22.5947C21.6214 22.5947 21.5096 22.5725 21.4053 22.5292C21.301 22.486 21.2062 22.4227 21.1264 22.3429L14 15.2154L6.87362 22.3429C6.71237 22.5041 6.49366 22.5947 6.26561 22.5947C6.03757 22.5947 5.81886 22.5041 5.65761 22.3429C5.49635 22.1816 5.40576 21.9629 5.40576 21.7348C5.40576 21.5068 5.49635 21.2881 5.65761 21.1268L12.785 14.0005L5.65761 6.87411C5.49635 6.71286 5.40576 6.49415 5.40576 6.2661C5.40576 6.03806 5.49635 5.81935 5.65761 5.65809C5.81886 5.49684 6.03757 5.40625 6.26561 5.40625C6.49366 5.40625 6.71237 5.49684 6.87362 5.65809L14 12.7855L21.1264 5.65809C21.2876 5.49684 21.5063 5.40625 21.7344 5.40625C21.9624 5.40625 22.1811 5.49684 22.3424 5.65809C22.5036 5.81935 22.5942 6.03806 22.5942 6.2661C22.5942 6.49415 22.5036 6.71286 22.3424 6.87411L15.2149 14.0005L22.3424 21.1268Z" fill="white"/>
</svg>
