<svg width="17" height="37" viewBox="0 0 17 37" fill="none" xmlns="http://www.w3.org/2000/svg">
<path d="M16.1847 33.0071L15.6678 35.1204C14.1168 35.7326 12.8779 36.1985 11.9554 36.5188C11.0319 36.8402 9.95877 37 8.73612 37C6.85855 37 5.39814 36.5401 4.35656 35.6265C3.31497 34.7092 2.79401 33.5469 2.79401 32.1369C2.79401 31.5911 2.83181 31.0297 2.91041 30.4577C2.98966 29.885 3.11567 29.24 3.28811 28.5191L5.22637 21.6587C5.39881 21.0018 5.54538 20.3794 5.66277 19.7908C5.78181 19.2058 5.83918 18.6676 5.83918 18.1831C5.83918 17.307 5.65779 16.6942 5.29667 16.3497C4.93555 16.0061 4.24646 15.8317 3.22345 15.8317C2.72238 15.8317 2.20739 15.912 1.68246 16.0671C1.1552 16.223 0.704539 16.3736 0.326172 16.5135L0.844478 14.3985C2.11421 13.8815 3.3279 13.4388 4.48887 13.0714C5.64983 12.703 6.7468 12.5186 7.78441 12.5186C9.64905 12.5186 11.0879 12.9692 12.0983 13.8706C13.1087 14.7725 13.6138 15.9418 13.6138 17.3826C13.6138 17.6808 13.5806 18.206 13.5093 18.9568C13.4397 19.7092 13.31 20.3986 13.121 21.0257L11.191 27.8585C11.0329 28.4073 10.8906 29.0347 10.7669 29.7407C10.6392 30.4421 10.5782 30.978 10.5782 31.3374C10.5782 32.2447 10.7805 32.8642 11.1861 33.1935C11.5946 33.5227 12.2983 33.6866 13.2977 33.6866C13.767 33.6866 14.3009 33.6033 14.8941 33.4398C15.4857 33.2764 15.9171 33.1328 16.1847 33.0071ZM16.6742 4.32087C16.6742 5.51135 16.2255 6.52807 15.3239 7.36405C14.4246 8.20303 13.3409 8.62284 12.0731 8.62284C10.8014 8.62284 9.71504 8.20303 8.80543 7.36405C7.89748 6.52773 7.44252 5.51135 7.44252 4.32087C7.44252 3.13272 7.89748 2.11434 8.80543 1.26774C9.71338 0.422471 10.8017 0 12.0731 0C13.3405 0 14.4246 0.423465 15.3239 1.26774C16.2262 2.11434 16.6742 3.13305 16.6742 4.32087Z" fill="#C54545"/>
</svg>
