<svg width="13" height="13" viewBox="0 0 13 13" fill="none" xmlns="http://www.w3.org/2000/svg">
<path d="M6.25 0C2.80361 0 0 2.80361 0 6.25C0 9.69639 2.80361 12.5 6.25 12.5C9.69639 12.5 12.5 9.69639 12.5 6.25C12.5 2.80361 9.69639 0 6.25 0ZM9.22241 9.48277C9.12085 9.58433 8.98752 9.63545 8.8542 9.63545C8.72087 9.63545 8.58746 9.58433 8.48598 9.48277L5.88179 6.87866C5.78384 6.78129 5.7292 6.64892 5.7292 6.51045V3.125C5.7292 2.83699 5.96247 2.6042 6.25 2.6042C6.53753 2.6042 6.7708 2.83699 6.7708 3.125V6.29482L9.22241 8.74634C9.42602 8.95004 9.42602 9.27916 9.22241 9.48277Z" fill="white"/>
</svg>
