<svg width="11" height="11" viewBox="0 0 11 11" fill="none" xmlns="http://www.w3.org/2000/svg">
<path d="M10.9934 2.61376L10.3743 6.14923C10.3232 6.44168 10.1749 6.70622 9.95508 6.89667C9.73531 7.08712 9.4581 7.19138 9.17184 7.19125H3.26595L3.48818 8.46029H8.96296C9.22258 8.46016 9.4755 8.54583 9.6851 8.70489C9.8947 8.86395 10.0501 9.08815 10.1288 9.34503C10.2075 9.6019 10.2055 9.87812 10.1229 10.1337C10.0403 10.3893 9.88158 10.6109 9.66962 10.7666C9.45765 10.9222 9.20348 11.0038 8.94389 10.9994C8.68431 10.9951 8.43279 10.9051 8.22575 10.7425C8.01872 10.5798 7.86691 10.353 7.79231 10.0948C7.71771 9.83658 7.72419 9.56044 7.81081 9.30632H4.81881C4.8906 9.51636 4.90786 9.74233 4.86884 9.96149C4.82982 10.1806 4.73591 10.3853 4.59656 10.5548C4.4572 10.7243 4.27731 10.8527 4.07498 10.9272C3.87265 11.0016 3.65501 11.0194 3.44396 10.9787C3.2329 10.9381 3.03588 10.8405 2.87269 10.6957C2.70951 10.5509 2.58592 10.364 2.51437 10.1539C2.44281 9.94378 2.4258 9.71779 2.46506 9.49868C2.50431 9.27956 2.59845 9.07504 2.73799 8.90569L1.32666 0.846029H0.407407C0.299356 0.846029 0.195731 0.801462 0.119327 0.722131C0.0429231 0.642801 0 0.535205 0 0.423015C0 0.310824 0.0429231 0.203229 0.119327 0.123898C0.195731 0.0445676 0.299356 8.30213e-08 0.407407 8.30213e-08H1.32666C1.51751 -8.76871e-05 1.70232 0.0694201 1.84885 0.19639C1.99537 0.32336 2.09429 0.499727 2.12835 0.694705L2.37706 2.11507H10.5926C10.6523 2.11508 10.7112 2.12869 10.7653 2.15496C10.8193 2.18122 10.8671 2.21949 10.9054 2.26706C10.9436 2.31462 10.9713 2.37033 10.9865 2.43024C11.0017 2.49015 11.0041 2.5528 10.9934 2.61376Z" fill="white"/>
</svg>
