<svg width="93" height="93" viewBox="0 0 93 93" fill="none" xmlns="http://www.w3.org/2000/svg">
<path d="M46.5 54.5294V54.5294C46.5 52.3737 48.2848 50.6812 50.3459 50.0499C51.6128 49.6619 52.8231 49.0822 53.9348 48.3239C56.1355 46.8228 57.8508 44.6892 58.8637 42.193C59.8766 39.6967 60.1416 36.9499 59.6252 34.2999C59.1088 31.6499 57.8343 29.2157 55.9627 27.3052C54.0912 25.3946 51.7067 24.0935 49.1108 23.5664C46.5148 23.0393 43.8241 23.3098 41.3788 24.3438C38.9335 25.3778 36.8434 27.1288 35.373 29.3753C33.9025 31.6219 33.1176 34.2632 33.1176 36.9651M92 46.5C92 71.629 71.629 92 46.5 92C21.371 92 1 71.629 1 46.5C1 21.371 21.371 1 46.5 1C71.629 1 92 21.371 92 46.5ZM48.2843 67.0196C48.2843 68.0051 47.4854 68.8039 46.5 68.8039C45.5145 68.8039 44.7157 68.0051 44.7157 67.0196C44.7157 66.0342 45.5145 65.2353 46.5 65.2353C47.4854 65.2353 48.2843 66.0342 48.2843 67.0196Z" stroke="white" stroke-width="1.5" stroke-linecap="round" stroke-linejoin="round"/>
</svg>
