<svg width="94" height="113" viewBox="0 0 94 113" fill="none" xmlns="http://www.w3.org/2000/svg">
<path opacity="0.3" d="M31.7255 0.421698C32.6314 0.977525 33.2817 1.81127 34.025 3.36295C34.7915 4.98412 37.1839 13.1826 39.7156 23.0254C42.7816 34.7904 44.3378 39.2833 45.6385 39.8623C46.916 40.4413 48.1238 38.6117 49.0296 34.7904C49.7729 31.6407 51.0504 23.0022 51.6775 16.6565C52.7692 6.00314 53.7215 2.9924 56.0674 2.9924C58.1578 2.9924 59.2727 4.45145 59.714 7.78642C59.9463 9.6855 59.9231 11.7004 59.3192 27.3562C58.9011 37.8011 58.9708 50.4694 59.4353 51.9053C59.7837 52.9938 62.1761 56.2592 63.2213 57.0235C64.6846 58.112 66.2408 58.2278 68.1454 57.3246C69.7481 56.5835 71.4436 55.2865 75.9497 51.2799C82.0119 45.9069 82.9642 45.4438 87.3309 45.6754C91.024 45.8606 93.6022 47.2039 93.9506 49.1493C94.1596 50.2609 93.8112 50.6546 90.8149 52.739C84.7063 56.954 82.5926 59.0615 79.2944 64.2029C75.88 69.5528 71.9314 75.2963 69.6552 78.2839C67.3789 81.2483 65.6137 83.1243 62.1761 86.2276C60.9218 87.3393 59.6676 88.7057 59.3888 89.2152C58.7849 90.3732 58.7617 91.0911 59.0869 104.385L59.2727 113H31.1216V103.319C31.1216 98.0158 31.0055 92.527 30.8893 91.1143C30.5874 88.1035 30.5874 88.1035 23.9212 74.092C21.4592 68.9275 18.7881 63.2071 17.9751 61.3543C14.9789 54.5918 10.7516 48.1997 5.61839 42.7109C1.13558 37.8938 -0.722577 34.2346 0.252956 32.0807C0.624588 31.2933 1.9253 30.6912 2.8776 30.8764C3.87636 31.0617 5.92034 32.3123 7.54623 33.7019C9.63666 35.5083 15.4434 41.7614 17.8358 44.7953C20.3675 47.9913 22.365 50.122 23.2709 50.6083C24.1071 51.0484 25.1987 51.0252 25.64 50.562C26.6388 49.5661 25.8723 47.227 20.7856 35.6473C15.3969 23.3728 13.3994 17.6755 13.0975 13.7616C13.0046 12.4646 13.051 11.9783 13.3994 11.3298C13.9336 10.3108 15.1647 9.47706 16.1634 9.47706C17.65 9.47706 18.6255 10.9361 20.9714 16.6797C21.6915 18.3935 22.8528 21.0336 23.5728 22.5622C24.2929 24.0907 25.7794 27.3562 26.8711 29.8343C30.7732 38.797 32.0507 41.0666 33.0494 40.9277C33.4908 40.8582 33.5604 40.6961 33.6301 39.7002C33.7927 37.3611 32.8869 31.8723 30.4248 20.362C27.1498 5.00728 26.7317 2.48289 27.3821 1.2786C28.0557 0.0511457 30.3551 -0.412044 31.7255 0.421698Z" fill="white"/>
</svg>
