<svg width="94" height="113" viewBox="0 0 94 113" fill="none" xmlns="http://www.w3.org/2000/svg">
<path opacity="0.3" d="M62.2745 0.4217C61.3686 0.977524 60.7183 1.81126 59.975 3.36295C59.2085 4.98412 56.8161 13.1826 54.2844 23.0254C51.2184 34.7904 49.6622 39.2833 48.3615 39.8623C47.084 40.4413 45.8762 38.6117 44.9704 34.7904C44.2271 31.6407 42.9496 23.0022 42.3225 16.6565C41.2308 6.00314 40.2785 2.9924 37.9326 2.9924C35.8422 2.9924 34.7273 4.45145 34.286 7.78642C34.0537 9.68549 34.0769 11.7004 34.6808 27.3562C35.0989 37.8011 35.0292 50.4694 34.5647 51.9053C34.2163 52.9937 31.8239 56.2592 30.7787 57.0235C29.3154 58.112 27.7592 58.2278 25.8546 57.3246C24.2519 56.5835 22.5564 55.2865 18.0503 51.2799C11.9881 45.9069 11.0358 45.4438 6.6691 45.6753C2.97601 45.8606 0.397815 47.2039 0.0494099 49.1493C-0.159633 50.2609 0.188772 50.6546 3.18505 52.739C9.29375 56.954 11.4074 59.0615 14.7056 64.2029C18.12 69.5528 22.0686 75.2963 24.3448 78.2839C26.6211 81.2483 28.3863 83.1243 31.8239 86.2276C33.0782 87.3393 34.3324 88.7057 34.6112 89.2152C35.2151 90.3732 35.2383 91.0911 34.9131 104.385L34.7273 113H48.8028H62.8784V103.319C62.8784 98.0158 62.9945 92.527 63.1107 91.1143C63.4126 88.1035 63.4126 88.1035 70.0788 74.092C72.5408 68.9275 75.2119 63.2071 76.0249 61.3543C79.0211 54.5918 83.2485 48.1997 88.3816 42.7109C92.8644 37.8938 94.7226 34.2346 93.747 32.0807C93.3754 31.2933 92.0747 30.6912 91.1224 30.8764C90.1236 31.0617 88.0797 32.3123 86.4538 33.7019C84.3633 35.5083 78.5566 41.7614 76.1642 44.7953C73.6325 47.9913 71.635 50.122 70.7291 50.6083C69.8929 51.0484 68.8013 51.0252 68.36 50.562C67.3612 49.5661 68.1277 47.227 73.2144 35.6473C78.6031 23.3728 80.6006 17.6755 80.9025 13.7616C80.9954 12.4646 80.949 11.9783 80.6006 11.3298C80.0664 10.3108 78.8353 9.47706 77.8366 9.47706C76.35 9.47706 75.3745 10.9361 73.0286 16.6797C72.3085 18.3935 71.1472 21.0336 70.4272 22.5622C69.7071 24.0907 68.2206 27.3562 67.1289 29.8343C63.2268 38.797 61.9493 41.0666 60.9506 40.9277C60.5092 40.8582 60.4396 40.6961 60.3699 39.7002C60.2073 37.3611 61.1131 31.8723 63.5752 20.362C66.8502 5.00728 67.2683 2.48289 66.6179 1.27859C65.9444 0.0511475 63.6449 -0.412048 62.2745 0.4217Z" fill="white"/>
</svg>
